<?xml version="1.0" encoding="UTF-8" standalone="no"?>
<svg xmlns="http://www.w3.org/2000/svg" viewBox="0 0 144 144">
  <path fill="#ffb728" d="M72 .78A71.22 71.22 0 0 0 .78 72 71.22 71.22 0 0 0 72 143.22 71.22 71.22 0 0 0 143.22 72 71.22 71.22 0 0 0 72 .78zm0 1.687A69.534 69.534 0 0 1 141.533 72 69.534 69.534 0 0 1 72 141.533 69.534 69.534 0 0 1 2.467 72 69.534 69.534 0 0 1 72 2.467zm0 4.463A65.071 65.071 0 0 0 6.93 72 65.071 65.071 0 0 0 72 137.07 65.071 65.071 0 0 0 137.07 72 65.071 65.071 0 0 0 72 6.93zm-1.516 24.049h3.032a3.208 3.208 0 0 1 3.205 3.205c0 .352.29.64.642.64a3.208 3.208 0 0 1 3.205 3.205c0 .352.286.64.639.64h1.166a1.282 1.282 0 1 1 0 2.565h-1.166a3.208 3.208 0 0 1-3.203-3.205.643.643 0 0 0-.64-.642 3.207 3.207 0 0 1-3.206-3.203.644.644 0 0 0-.642-.641h-3.03a.644.644 0 0 0-.642.64 3.207 3.207 0 0 1-3.205 3.204.644.644 0 0 0-.641.642 1.282 1.282 0 1 1-2.564 0 3.208 3.208 0 0 1 3.205-3.205.643.643 0 0 0 .64-.64 3.208 3.208 0 0 1 3.205-3.205zm-8.865 7.69a1.282 1.282 0 0 1 .338 2.52c-.314.085-.715.245-.826.329l-.774.775a1.28 1.28 0 0 1-1.812-.002 1.28 1.28 0 0 1 0-1.812l.805-.803c.548-.548 1.548-.857 1.95-.963a1.29 1.29 0 0 1 .32-.043zm26.283 2.395h.002c.37.028.726.14 1.053.336.811.49 1.318 1.446 1.318 2.49a.66.66 0 0 0 .659.657c1.96 0 2.69 2.411 2.818 2.894.027.106.041.217.041.327v1.937c0 .11-.015.22-.041.326-.07.26-.324 1.079-.842 1.78l2.053 2.05 6.877-4.71a1.29 1.29 0 0 1 .724-.225h9.176a1.279 1.279 0 0 1 1.188 1.763c-.867 2.136-5.156 12.124-10.162 13.668v3.795h1.283c.71 0 1.281.576 1.281 1.285v7.268c0 .378-.169.739-.457.983l-3.389 2.847v3.002h2.565c.71 0 1.281.572 1.281 1.281v6.33l2.555 20.432a1.283 1.283 0 0 1-1.272 1.441H37.39a1.283 1.283 0 0 1-1.272-1.44l2.553-20.433v-6.33a1.28 1.28 0 0 1 1.281-1.28h2.565v-3.003l-3.389-2.847a1.29 1.29 0 0 1-.457-.983v-7.267c0-.71.572-1.284 1.281-1.284h1.283v-3.797c-5.006-1.544-9.295-11.532-10.162-13.668a1.278 1.278 0 0 1 .125-1.199 1.277 1.277 0 0 1 1.063-.564h9.176c.259 0 .512.08.724.222l7.756 5.315a1.291 1.291 0 0 1 .457 1.564l-1.549 3.655-.32.966a4.099 4.099 0 0 1 1.703 3.325v13.603c0 .416.174.822.477 1.108l5.392 5.097a14.053 14.053 0 0 1 4.387 10.176v4.568c0 .728.294 1.44.81 1.955l6.13 6.131h9.195l6.129-6.13a2.78 2.78 0 0 0 .81-1.956v-4.568c0-3.834 1.6-7.544 4.387-10.176l5.392-5.097c.303-.285.477-.69.477-1.108V63.973a4.09 4.09 0 0 1 1.7-3.324l-.354-1.063-1.424-3.346-3.172-3.172a.64.64 0 0 0-.27.514 3.224 3.224 0 0 1-3.218 3.22 1.28 1.28 0 0 1-1.284-1.28c0-.71.575-1.282 1.284-1.282a.658.658 0 0 0 .656-.658 3.224 3.224 0 0 1 3.086-3.217c.135-.143.319-.507.43-.845v-1.565c-.111-.337-.297-.704-.43-.848a3.224 3.224 0 0 1-3.086-3.216.47.47 0 0 0-.088-.3c-.184.099-.36.206-.566.206H85.92a1.28 1.28 0 0 1-1.283-1.281c0-.71.574-1.282 1.283-1.282h.863a2.586 2.586 0 0 1 1.12-.17zM55.008 42.61a1.28 1.28 0 0 1 1.281 1.282 3.225 3.225 0 0 1-3.088 3.216c-.135.144-.319.508-.43.848v1.566c.112.337.297.703.43.846a3.226 3.226 0 0 1 3.088 3.219c0 .363.294.656.656.656a3.224 3.224 0 0 1 3.223 3.22 1.28 1.28 0 0 1-1.283 1.282 1.28 1.28 0 0 1-1.281-1.281.658.658 0 0 0-.659-.656 3.223 3.223 0 0 1-3.218-3.221.658.658 0 0 0-.659-.656c-1.96 0-2.691-2.414-2.82-2.897a1.334 1.334 0 0 1-.041-.326V47.77c0-.11.015-.22.041-.327.128-.483.86-2.896 2.82-2.896a.658.658 0 0 0 .659-.656 1.28 1.28 0 0 1 1.28-1.282zm-18.004 8.88 10.031 5.853.572-1.35-6.566-4.504h-4.037zm65.957 0-6.565 4.503.573 1.348 10.03-5.85h-4.038v-.002zm-67.844 1.87c2.132 4.175 5.012 8.337 7.178 8.606l1.02-.963a4.036 4.036 0 0 1 2.736-1.098l.049-.138-10.98-6.407h-.003zm73.766 0-10.98 6.407.044.14a4.023 4.023 0 0 1 2.74 1.098l1.02.963c2.165-.27 5.045-4.434 7.176-8.608zm-46.977 4.537v.002h1.12c.71 0 1.285.575 1.285 1.284v1.28h.406a3.208 3.208 0 0 1 3.205 3.206c0 .352.288.64.64.64h6.877a.643.643 0 0 0 .641-.64 3.208 3.208 0 0 1 3.205-3.205h.406V59.18c0-.71.575-1.284 1.284-1.284h1.4a1.283 1.283 0 1 1 0 2.567h-.12v1.281a1.28 1.28 0 0 1-1.28 1.281h-1.692a.644.644 0 0 0-.638.643 3.206 3.206 0 0 1-3.206 3.203h-6.878a3.206 3.206 0 0 1-3.204-3.203.644.644 0 0 0-.642-.643h-1.69a1.28 1.28 0 0 1-1.28-1.28V60.45a1.281 1.281 0 0 1 .161-2.555zm-7.263.221c.247-.002.496.068.716.215l.637.426c3.6 2.4 5.748 6.418 5.748 10.744v3.78a1.28 1.28 0 0 1-1.281 1.28 1.28 1.28 0 0 1-1.281-1.28V69.5c0-3.468-1.725-6.685-4.61-8.61l-.635-.425a1.283 1.283 0 0 1 .706-2.348zm34.714 0c.411.002.816.204 1.063.572a1.28 1.28 0 0 1-.356 1.778l-.634.424a10.329 10.329 0 0 0-4.61 8.611v3.78a1.282 1.282 0 1 1-2.564 0v-3.78a12.89 12.89 0 0 1 5.75-10.744l.635-.426c.22-.147.47-.217.716-.215zm-43.34 4.334a1.514 1.514 0 0 0-.945.414l-1.271 1.207v4.082h1.281a1.28 1.28 0 0 1 1.281 1.284v3.03l1.282 1.386v-9.881a1.524 1.524 0 0 0-1.627-1.52v-.002zm51.965 0a1.5 1.5 0 0 0-.35.022 1.512 1.512 0 0 0-1.097.789 1.53 1.53 0 0 0-.178.71v9.882l1.282-1.387v-3.03c0-.71.574-1.283 1.283-1.283h1.281v-4.082l-1.275-1.205a1.524 1.524 0 0 0-.946-.416zM55.336 65.59a1.28 1.28 0 0 1 1.281 1.281v3.848A1.28 1.28 0 0 1 55.336 72a1.28 1.28 0 0 1-1.281-1.281V66.87c0-.71.572-1.281 1.28-1.281zm33.33 0a1.28 1.28 0 0 1 1.281 1.281v3.848A1.28 1.28 0 0 1 88.666 72a1.28 1.28 0 0 1-1.281-1.281V66.87c0-.71.571-1.281 1.281-1.281zm11.537 5.129v2.25c0 .324-.122.636-.34.873l-3.511 3.797a4.1 4.1 0 0 1-1.276 2.91l-5.392 5.097a11.485 11.485 0 0 0-3.582 8.313v4.568a5.361 5.361 0 0 1-1.561 3.77l-6.506 6.504a1.28 1.28 0 0 1-.906.375H66.873c-.341 0-.666-.133-.906-.375l-6.506-6.506a5.355 5.355 0 0 1-1.563-3.768V93.96c0-3.131-1.305-6.163-3.58-8.313l-5.392-5.1a4.092 4.092 0 0 1-1.276-2.907l-3.51-3.8a1.281 1.281 0 0 1-.341-.868v-2.25h-2.563v5.388l3.389 2.848c.288.245.455.604.455.982v4.881a1.28 1.28 0 0 1-1.281 1.282h-2.565v3.845h3.846a1.28 1.28 0 0 1 1.281 1.283v3.846h2.565a1.28 1.28 0 0 1 1.281 1.281v5.084l3.39 2.848c.289.244.458.604.458.982v1.34h2.797c.378 0 .737.17.98.457l2.85 3.389H83.32l2.848-3.389c.245-.288.602-.455.98-.455h2.8v-1.34c0-.379.165-.739.454-.982l3.391-2.85v-5.084a1.28 1.28 0 0 1 1.283-1.28h2.563V91.23c0-.709.574-1.283 1.283-1.283h3.844v-3.845h-2.563a1.28 1.28 0 0 1-1.281-1.282v-4.88c0-.379.167-.736.455-.98l3.389-2.85v-5.391h-2.563zm-33.33 12.818c.71 0 1.281.572 1.281 1.281v2.565h7.694V84.82a1.282 1.282 0 0 1 2.562 0v3.284l1.594 1.593c.24.24.375.566.375.908 0 2.206-3.664 3.818-7.098 4.842v3.475h2.567c.707 0 1.28-.576 1.28-1.283 0-.71.573-1.282 1.282-1.282.71 0 1.281.573 1.281 1.282a3.85 3.85 0 0 1-3.843 3.845h-7.694a3.852 3.852 0 0 1-3.845-3.845 1.282 1.282 0 1 1 2.564 0c0 .707.573 1.283 1.281 1.283h2.565v-3.475c-3.434-1.024-7.096-2.635-7.096-4.842 0-.342.134-.667.375-.908l1.594-1.593V84.82c0-.71.572-1.283 1.281-1.283zm.5 6.41-.87.87c.88.68 3.171 1.663 5.499 2.331 2.327-.668 4.616-1.653 5.496-2.332l-.87-.869h-9.255zm-26.289 2.565-2.242 17.945h18.49l-1.08-1.281h-3.48a1.28 1.28 0 0 1-1.284-1.281v-2.026l-3.388-2.848a1.288 1.288 0 0 1-.455-.982v-4.398H45.08a1.28 1.28 0 0 1-1.281-1.284v-3.845h-2.715zm59.12 0v3.845a1.28 1.28 0 0 1-1.282 1.282h-2.565v4.4c0 .378-.167.738-.455.98l-3.39 2.85v2.026a1.28 1.28 0 0 1-1.282 1.28h-3.48l-1.078 1.282h18.488l-2.242-17.945h-2.715zm-30.766 10.254h5.126a1.28 1.28 0 0 1 1.284 1.283 1.28 1.28 0 0 1-1.284 1.281h-5.126a1.28 1.28 0 0 1-1.284-1.281c0-.71.574-1.283 1.284-1.283z"/>
</svg>
