<?xml version="1.0" encoding="UTF-8" standalone="no"?>
<svg
   version="1.1"
   x="0px"
   y="0px"
   viewBox="0 0 89.962997 60.700001"
   xml:space="preserve"
   id="svg2"
   sodipodi:docname="beef.svg"
   width="89.962997"
   height="60.700001"
   inkscape:version="1.3.2 (091e20ef0f, 2023-11-25, custom)"
   xmlns:inkscape="http://www.inkscape.org/namespaces/inkscape"
   xmlns:sodipodi="http://sodipodi.sourceforge.net/DTD/sodipodi-0.dtd"
   xmlns="http://www.w3.org/2000/svg"
   xmlns:svg="http://www.w3.org/2000/svg"><defs
     id="defs2" /><sodipodi:namedview
     id="namedview2"
     pagecolor="#ffffff"
     bordercolor="#000000"
     borderopacity="0.25"
     inkscape:showpageshadow="2"
     inkscape:pageopacity="0.0"
     inkscape:pagecheckerboard="0"
     inkscape:deskcolor="#d1d1d1"
     inkscape:zoom="6.992"
     inkscape:cx="44.908467"
     inkscape:cy="42.334096"
     inkscape:window-width="1898"
     inkscape:window-height="1036"
     inkscape:window-x="0"
     inkscape:window-y="0"
     inkscape:window-maximized="1"
     inkscape:current-layer="svg2" /><path
     d="M 89.2,19.3 81.5,7.9 C 80.9,6.9 80,6.7 78.9,6.9 L 78.1,5.2 c -0.5,-1.1 0,-2.4 1.2,-2.9 L 85.3,0 H 77.5 C 74.6,0 72.6,3 73.7,5.7 L 74.6,7.8 74,7.9 71.6,6.4 C 70.8,5.9 70,5.7 69.1,5.7 h -2.9 l 3.1,3 -7.1,1.2 c 0.1,0.4 0.2,0.9 0.4,1.3 l -1,0.3 C 61.4,11 61.3,10.5 61.2,10 H 39.8 v 0.7 h -1 V 10 h -6.6 v 1.9 h -1 V 10 H 5.6 C 2.5,10 0,12.5 0,15.6 V 39.5 H 2.8 V 15.6 c 0,-1.5 1.3,-2.8 2.8,-2.8 v 9.9 l 1.4,9.8 -1.4,8.4 0.2,2.8 h 2 v 1 H 5.9 L 7,60.6 h 3.5 V 44.7 H 8.7 v -1 h 1.8 l 2.1,-1.8 v 4.7 l 3.4,14 h 3.5 l -1.8,-14.1 5.8,-9 -1.4,-0.4 0.3,-1 8.6,2.6 v -1.8 h 1 v 2 l 14,0.5 -2.7,21.2 h 3.5 l 4.3,-17.7 -1,-2.1 0.9,-0.4 2.8,5.8 h 2.1 v 1 H 54 l 1.4,13.5 h 3.5 V 47.1 h -2 v -1 H 59 v -6.7 c 3.1,-0.5 5.8,-2.2 7.5,-4.9 l 1.2,-1.9 h -1.1 v -1 h 1.7 l 3.6,-5.9 C 71.5,25.4 71.1,25.1 70.7,24.8 L 71.3,24 c 0.3,0.3 0.7,0.6 1.1,0.8 l 1.4,-2.2 11.8,1.8 c 1.3,0.5 2.8,0 3.7,-1.1 0.9,-1.1 0.9,-2.9 -0.1,-4 z m -70,-8.9 h 1 v 2.1 h -1 z m 0,3.1 h 1 v 2.1 h -1 z m 0,3.1 h 1 v 2.1 h -1 z m 0,3.1 h 1 v 2.1 h -1 z m 0,6.2 h 1 V 28 h -1 z m 0,3.1 h 1 v 2.1 h -1 z m 0,3.2 h 1 v 2.1 h -1 z m -5.6,10.2 -0.7,-0.8 1.3,-1.1 0.7,0.8 z m 1.9,-1.7 -0.7,-0.8 1.3,-1.1 0.7,0.8 z m 1.9,-1.7 -0.7,-0.8 1.3,-1.1 0.7,0.8 z m 4,-2.1 -1.2,-0.3 -0.9,0.8 -0.7,-0.7 0.6,-0.5 v -0.8 h 1 v 0.2 l 1.4,0.4 z m 0,-11.7 C 21,25 20.6,24.9 20.3,24.7 v 0.2 h -1 v -2.1 h 1 v 0.8 c 0.5,0.2 1,0.4 1.5,0.6 z m 28,-14.5 h 1 v 2 h -1 z m 0,3 h 1 v 2 h -1 z m 0,3 h 1 v 2 h -1 z m 0,3 h 1 v 2 h -1 z m 0,3 h 1 v 2 h -1 z m 0,3 h 1 v 2 h -1 z m 0,3 h 1 v 2 h -1 z m -10.6,-17 h 1 v 2 h -1 z m 0,3 h 1 v 2 h -1 z m 0,3 h 1 v 2 h -1 z m 0,3 h 1 v 2 h -1 z m 0,3 h 1 v 2 h -1 z m 0,3 h 1 v 2 h -1 z M 31.2,12.9 h 1 v 2 h -1 z m 0,3 h 1 v 2 h -1 z m 0,3 h 1 v 2 h -1 z m 0,3 h 1 v 2 h -1 z m 0,3 h 1 v 2 h -1 z m -7,1.4 c -0.6,-0.2 -1.3,-0.5 -1.9,-0.7 l 0.4,-0.9 c 0.6,0.2 1.2,0.5 1.9,0.7 z m 2.8,1 c -0.6,-0.2 -1.3,-0.4 -1.9,-0.7 l 0.3,-0.9 c 0.6,0.2 1.3,0.4 1.9,0.7 z m 2.9,0.9 C 29.3,28 28.6,27.8 28,27.6 l 0.3,-0.9 c 0.6,0.2 1.3,0.4 1.9,0.6 z m 2.3,7.7 h -1 v -2 h 1 z m 0,-3 h -1 v -2 h 1 z m 0.6,-3.8 c -0.2,0 -0.4,-0.1 -0.6,-0.2 v 1 h -1 v -1.3 c -0.1,0 -0.2,-0.1 -0.3,-0.1 l 0.3,-1 c 0.6,0.2 1.3,0.4 1.9,0.6 z m 2.9,0.7 c -0.7,-0.1 -1.3,-0.3 -2,-0.5 l 0.3,-1 c 0.6,0.2 1.3,0.3 1.9,0.5 z m 3,0.7 c -0.7,-0.1 -1.3,-0.3 -2,-0.4 l 0.2,-1 c 0.6,0.2 1.3,0.3 1.9,0.4 z m 2.9,0.5 c -0.7,-0.1 -1.3,-0.2 -2,-0.4 l 0.2,-1 c 0.7,0.1 1.3,0.3 2,0.4 z m 3,0.5 c -0.7,-0.1 -1.3,-0.2 -2,-0.3 l 0.2,-1 c 0.7,0.1 1.3,0.2 2,0.3 z m 3,0.4 c -0.7,-0.1 -1.3,-0.2 -2,-0.3 l 0.1,-1 c 0.6,0.1 1.3,0.2 2,0.3 z m 2,8 -0.2,-0.5 v -1.7 h 1 v 1.5 l 0.1,0.3 z m -0.2,-3.2 v -2 h 1 v 2 z m 1.2,-4.5 c 0,0 -0.1,0 -0.2,0 v 1.5 h -1 v -1.6 c -0.3,0 -0.6,0 -0.8,-0.1 l 0.1,-1 c 0.7,0.1 1.3,0.1 2,0.2 z m 3,0.2 c -0.7,0 -1.3,-0.1 -2,-0.1 l 0.1,-1 c 0.7,0 1.3,0.1 2,0.1 z m 3,0.1 c -0.7,0 -1.3,0 -2,-0.1 v -1 c 0.7,0 1.3,0.1 2,0.1 z m 1,0.1 v -1 c 0.5,0 1,0 1.5,0 h 0.5 v 1 h -0.5 c -0.5,0 -1,0 -1.5,0 z m 2.4,5.8 h -1 v -2 h 1 z m 0,-3 h -1 v -2 h 1 z m 2.6,-2.8 h -2 v -1 h 2 z M 62.1,12.4 63,12.1 c 0.2,0.6 0.5,1.2 0.7,1.8 l -0.9,0.4 c -0.3,-0.6 -0.5,-1.2 -0.7,-1.9 z m 2,2.4 c 0.3,0.6 0.6,1.2 0.9,1.7 L 64.1,17 c -0.3,-0.6 -0.7,-1.2 -1,-1.8 z m 1.5,17.8 h -2 v -1 h 2 z m -0.9,-14.7 0.8,-0.5 c 0.4,0.6 0.7,1.1 1.1,1.6 l -0.7,0.6 C 65.5,19 65.1,18.5 64.7,17.9 Z m 3.1,4 c -0.5,-0.5 -0.9,-1 -1.3,-1.6 l 0.8,-0.6 c 0.4,0.5 0.8,1 1.3,1.5 z m 2.1,2.2 c -0.5,-0.5 -1,-0.9 -1.5,-1.4 L 69.1,22 c 0.5,0.5 0.9,0.9 1.4,1.4 z"
     id="path1" /></svg>
