<?xml version="1.0" encoding="UTF-8" standalone="no"?>
<svg
   data-name="Layer 1"
   viewBox="0 0 100 100"
   x="0px"
   y="0px"
   version="1.1"
   id="svg224"
   sodipodi:docname="covid.svg"
   width="100"
   height="100"
   inkscape:version="1.2.2 (b0a8486541, 2022-12-01)"
   xmlns:inkscape="http://www.inkscape.org/namespaces/inkscape"
   xmlns:sodipodi="http://sodipodi.sourceforge.net/DTD/sodipodi-0.dtd"
   xmlns="http://www.w3.org/2000/svg"
   xmlns:svg="http://www.w3.org/2000/svg">
  <defs
     id="defs228" />
  <sodipodi:namedview
     id="namedview226"
     pagecolor="#505050"
     bordercolor="#eeeeee"
     borderopacity="1"
     inkscape:showpageshadow="0"
     inkscape:pageopacity="0"
     inkscape:pagecheckerboard="0"
     inkscape:deskcolor="#505050"
     showgrid="false"
     inkscape:zoom="1.4968244"
     inkscape:cx="-223.80715"
     inkscape:cy="-31.733849"
     inkscape:window-width="1916"
     inkscape:window-height="879"
     inkscape:window-x="0"
     inkscape:window-y="1256"
     inkscape:window-maximized="1"
     inkscape:current-layer="svg224" />
  <g
     id="g321"
     transform="matrix(0.47939356,0,0,0.47939356,3.7473372,2.4518313)">
    <path
       d="m 83.93105,93.821974 c -2.43174,-2.399743 -6.303326,-2.399743 -8.70307,0 -2.399743,2.399744 -2.367747,6.271326 0,8.671076 l 9.726961,9.69496 c -0.19198,-1.08788 -0.223976,-2.20776 -0.159983,-3.35964 0.191979,-3.51962 1.567832,-6.91126 3.999573,-10.078922 l -4.895477,-4.895477 z"
       id="path214"
       style="stroke-width:3.19966" />
    <path
       d="M 134.83761,1.8318043 112.24802,24.42139 c -5.27943,5.311433 -8.22312,12.318684 -8.15912,19.805884 V 57.537852 H 90.778319 c -4.735494,0 -9.311005,1.151876 -13.406568,3.35964 -2.303754,1.279864 -4.447524,2.879693 -6.367319,4.767491 L 60.381567,76.351841 c -1.919795,1.919795 -3.551621,4.063566 -4.831484,6.36732 -2.207764,4.063565 -3.359641,8.60708 -3.359641,13.37457 V 109.40431 H 38.911861 c -7.455203,0 -14.49445,2.91169 -19.74189,8.19112 L 1.8278245,134.93758 c -2.4317401,2.36775 -2.4317401,6.27133 -0.031996,8.63908 2.3997435,2.36774 6.3033264,2.39974 8.6710735,0 l 14.334468,-14.33447 11.390782,11.42278 c 2.43174,2.39974 6.303326,2.39974 8.671073,0 2.367747,-2.39975 2.399744,-6.23933 0,-8.67107 l -9.854946,-9.85495 c 1.279863,-0.35196 2.62372,-0.54394 4.031568,-0.54394 h 16.734212 v 16.7662 c 0,4.22355 -1.631825,8.15913 -4.607506,11.13481 l -7.615187,7.61519 -11.422779,-11.39078 c -2.399743,-2.43174 -6.271329,-2.43174 -8.639076,-0.032 -2.367747,2.39975 -2.367747,6.27133 0,8.67108 l 11.390782,11.39078 -6.36732,6.36732 c -2.399743,2.39974 -2.367747,6.27133 0,8.67107 2.367748,2.39974 6.239334,2.39974 8.639077,0 l 22.589585,-22.58959 c 5.279437,-5.31143 8.223122,-12.31868 8.159128,-19.80588 v -13.31058 h 13.310579 c 0.671927,0 1.343856,0 1.983788,-0.032 1.823804,-0.12799 3.583617,-0.41596 5.279436,-0.89591 1.183873,-0.28797 2.303754,-0.67193 3.423634,-1.11988 -0.799915,-0.57594 -1.503839,-1.18387 -2.207764,-1.8878 -2.495733,-2.49573 -4.063566,-5.50341 -4.607508,-8.76706 -1.279863,0.35196 -2.591723,0.51195 -3.935579,0.54394 H 64.413136 c 0,0 0,-16.798202 0,-16.798202 -0.032,-4.223549 1.599829,-8.159128 4.575511,-11.13481 l 7.615186,-7.615186 11.390783,11.422779 c 2.43174,2.399744 6.303327,2.399744 8.671073,0 2.367747,-2.399744 2.367747,-6.27133 0,-8.671073 l -9.854946,-9.854947 c 1.279863,-0.351963 2.655716,-0.543942 4.031569,-0.543942 h 16.734208 v 16.766208 c 0,1.40785 -0.19198,2.783703 -0.57593,4.063566 3.58361,0.575938 6.91126,2.303754 9.47098,5.151449 0.41596,0.479949 0.79992,0.991894 1.18388,1.535836 0.12798,-0.319965 0.25597,-0.607935 0.35196,-0.895904 1.18387,-3.103668 1.79181,-6.399316 1.79181,-9.854947 v -0.575938 c 0,0 0,-12.702643 0,-12.702643 h 13.31058 c 7.4552,0 14.49445,-2.911689 19.74189,-8.223121 l 17.34214,-17.342147 c 2.43174,-2.399744 2.43174,-6.27133 0.032,-8.639077 -2.39974,-2.367747 -6.27133,-2.43174 -8.67107,0 L 147.25228,53.314303 135.8615,41.891523 c -2.43174,-2.399743 -6.30333,-2.399743 -8.67107,0 -2.36775,2.399744 -2.39975,6.239334 0,8.70307 l 9.88694,9.854947 c -1.31186,0.351963 -2.62372,0.543942 -4.03157,0.543942 H 116.31159 V 44.227274 c 0,-4.223549 1.63183,-8.159128 4.60751,-11.13481 l 7.61518,-7.615187 11.42278,11.390783 c 2.39975,2.43174 6.23934,2.43174 8.63908,0.032 2.39974,-2.399744 2.36775,-6.27133 0,-8.671074 l -11.39078,-11.390782 6.36732,-6.36732 c 2.39974,-2.3997435 2.36774,-6.2713298 0,-8.6710733 -2.36775,-2.39974359 -6.23934,-2.39974359 -8.63908,0 z"
       id="path216"
       style="stroke-width:3.19966" />
    <path
       d="m 164.78641,101.11719 c -1.8878,1.8878 -2.71971,4.35154 -2.55973,6.75128 0.096,1.53584 -0.73592,2.97569 -2.11177,3.58362 l -1.18387,0.57594 c -6.71929,3.19966 -14.68643,-0.064 -17.18217,-7.03925 l -0.35196,-1.02389 c -0.47995,-1.34386 -0.19198,-2.8477 0.86391,-3.83959 1.63182,-1.535835 2.68771,-3.679606 2.7837,-6.07935 0.12799,-3.615613 -2.75171,-6.655289 -6.30333,-7.135237 -5.98336,-0.799915 -11.39078,1.11988 -11.39078,6.815271 0,2.52773 1.08788,4.799488 2.7837,6.399316 1.05589,0.9599 1.34386,2.49573 0.86391,3.83959 l -0.35196,0.9599 c -2.46374,6.97525 -10.43089,10.3029 -17.11817,7.10324 -0.38396,-0.15998 -0.73592,-0.41596 -1.02389,-0.70393 -0.73592,-0.73592 -1.11988,-1.8238 -1.08789,-2.91168 0.032,-0.67193 0,-1.34386 -0.12798,-2.04779 -0.25598,-1.53583 -0.9599,-3.03967 -2.07978,-4.28754 -2.49573,-2.7837 -6.84727,-2.87969 -9.822951,-0.54394 -4.639504,3.64761 -7.007251,8.73507 -3.039675,12.70264 1.31186,1.31186 2.943685,2.11178 4.671496,2.43174 0.38396,0.064 0.79992,0.12799 1.18388,0.12799 1.31186,0.032 2.49573,0.8959 3.03967,2.07978 l 0.44796,0.95989 c 3.16766,6.68729 -0.12799,14.62244 -7.103246,17.11818 l -0.223976,0.096 c -1.343856,0.47995 -2.815699,0.22398 -3.807593,-0.76791 -1.535836,-1.56784 -3.679607,-2.55973 -6.047354,-2.62372 -3.519624,-0.064 -6.495306,2.7837 -6.975254,6.30332 -0.799915,5.98336 1.055887,11.42278 6.815271,11.42278 2.431741,0 4.639505,-1.02389 6.207337,-2.59172 0.991894,-0.99189 2.495733,-1.27986 3.775597,-0.79991 l 0.255972,0.096 c 6.975256,2.49573 10.270906,10.39888 7.103246,17.11817 l -0.15999,0.25597 c -0.60793,1.34386 -1.98379,2.14377 -3.45563,2.11177 -2.207762,-0.032 -4.447523,0.73592 -6.143342,2.36775 -2.719709,2.49573 -2.751706,6.75128 -0.479949,9.66297 3.647611,4.6715 8.735071,7.07124 12.734641,3.03967 1.66382,-1.66382 2.49573,-3.80759 2.55973,-5.98336 0.032,-1.40785 0.8639,-2.65571 2.11177,-3.26365 l 0.67193,-0.35196 c 6.68728,-3.16766 14.62244,0.12798 17.08617,7.07124 l 0.38396,1.02389 c 0.47995,1.34386 0.15998,2.8797 -0.86391,3.83959 -1.66382,1.50384 -2.71971,3.67961 -2.8157,6.04736 -0.12798,3.61561 2.75171,6.68728 6.30333,7.16723 5.98336,0.79992 11.39078,-1.11988 11.39078,-6.84727 0,-2.55972 -1.08788,-4.79948 -2.8157,-6.43131 -1.05588,-0.9599 -1.34385,-2.49573 -0.8639,-3.83959 l 0.35196,-0.9599 c 2.49573,-6.97525 10.43088,-10.2389 17.11817,-7.10324 l 1.91979,0.9279 c 1.24787,0.57594 2.11178,1.82381 2.11178,3.19966 0,2.17577 0.83191,4.35154 2.43174,6.04735 2.52773,2.62372 6.68728,2.59173 9.53498,0.38396 4.7035,-3.6796 7.10324,-8.76706 3.13566,-12.76663 -1.98378,-1.98379 -4.57551,-2.8157 -7.10324,-2.59173 -1.56783,0.15999 -3.03967,-0.67192 -3.7116,-2.07977 l -0.44795,-0.9919 c -3.16766,-6.65529 0.12798,-14.62243 7.07124,-17.08617 l 1.72782,-0.63993 c 1.37585,-0.47995 2.97568,-0.15999 3.93558,0.95989 1.56783,1.79181 3.80759,2.91169 6.36732,2.97569 3.51962,0.096 6.4953,-2.59173 6.97525,-6.07935 0.89591,-6.07935 -0.99189,-11.58277 -6.78327,-11.58277 -2.59173,0 -4.86348,1.11988 -6.52731,2.91169 -0.95989,1.11988 -2.55972,1.50384 -3.96757,0.9919 l -1.72782,-0.60794 c -6.94326,-2.46373 -10.2389,-10.39889 -7.07124,-17.11817 l 0.76792,-1.63182 c 0.67192,-1.34386 2.01578,-2.14378 3.45563,-2.11178 2.20776,0 4.41553,-0.73592 6.11134,-2.36775 2.68772,-2.49573 2.71971,-6.75127 0.47995,-9.66296 -3.6796,-4.703501 -8.73506,-7.071248 -12.73464,-3.03968 z m -38.87585,57.30588 c -2.55972,2.55973 -6.81527,2.65572 -9.47098,0 -2.65572,-2.65572 -2.46374,-6.81527 0.096,-9.375 2.55972,-2.55972 6.71928,-2.55972 9.279,0 2.55973,2.55973 2.65572,6.84727 0.12799,9.375 z m 29.91681,-1.8238 c 0,2.36774 -0.89591,4.6395 -2.75171,6.5273 -3.7436,3.7436 -9.85495,3.7436 -13.63054,0 -3.7756,-3.7436 -3.61562,-9.75896 0.12798,-13.50256 1.8878,-1.8878 4.12756,-2.7837 6.49531,-2.7837 2.49573,-0.096 5.05546,0.8959 6.91126,2.7517 1.8558,1.85581 2.87969,4.44753 2.8477,7.00726 z M 130.2941,134.7776 c -3.07168,3.07167 -7.90316,2.97568 -10.84684,0 -2.94369,-2.97568 -3.07168,-7.77517 0,-10.84684 3.07167,-3.07168 7.77516,-3.03968 10.84684,0 3.07167,3.03967 2.97568,7.90315 0,10.84684 z m 26.68514,3.80759 c -3.55162,3.55162 -9.279,3.58362 -12.83062,0 -3.55163,-3.58362 -3.55163,-9.311 0,-12.86262 3.55162,-3.55163 9.279,-3.51963 12.83062,0 3.55162,3.51962 3.55162,9.24701 0,12.79863 z"
       id="path218"
       style="stroke-width:3.19966" />
  </g>
</svg>
