<?xml version="1.0" encoding="UTF-8" standalone="no"?>
<svg
   viewBox="0 0 100 100"
   version="1.1"
   id="svg200"
   sodipodi:docname="emacs.svg"
   inkscape:version="1.2.2 (b0a8486541, 2022-12-01)"
   width="100"
   height="100"
   xmlns:inkscape="http://www.inkscape.org/namespaces/inkscape"
   xmlns:sodipodi="http://sodipodi.sourceforge.net/DTD/sodipodi-0.dtd"
   xmlns="http://www.w3.org/2000/svg"
   xmlns:svg="http://www.w3.org/2000/svg">
  <defs
     id="defs204" />
  <sodipodi:namedview
     id="namedview202"
     pagecolor="#505050"
     bordercolor="#eeeeee"
     borderopacity="1"
     inkscape:showpageshadow="0"
     inkscape:pageopacity="0"
     inkscape:pagecheckerboard="0"
     inkscape:deskcolor="#505050"
     showgrid="false"
     inkscape:zoom="4"
     inkscape:cx="11.5"
     inkscape:cy="65.125"
     inkscape:window-width="1916"
     inkscape:window-height="879"
     inkscape:window-x="0"
     inkscape:window-y="1256"
     inkscape:window-maximized="1"
     inkscape:current-layer="svg200" />
  <linearGradient
     id="a">
    <stop
       offset="0"
       stop-color="#8381c5"
       id="stop182" />
    <stop
       offset=".566"
       stop-color="#7e55b3"
       stop-opacity=".996"
       id="stop184" />
    <stop
       offset="1"
       stop-color="#a52ecb"
       stop-opacity=".992"
       id="stop186" />
  </linearGradient>
  <linearGradient
     id="b"
     gradientTransform="matrix(0.40047551,0,0,0.4082963,-3.0312708,-4.7180894)"
     x1="15.581101"
     y1="14.784498"
     x2="498.96359"
     y2="14.784498"
     gradientUnits="userSpaceOnUse">
    <stop
       offset="0"
       stop-color="#411f5d"
       id="stop189" />
    <stop
       offset="1"
       stop-color="#5b2a85"
       id="stop191" />
  </linearGradient>
  <path
     id="path196"
     style="display:inline;fill:#000000;stroke-width:0.209392"
     d="m 50,0.9335039 c -27.092991,0 -49.05628064,21.9680831 -49.05628064,49.0664921 0,27.098412 21.96328964,49.0665 49.05628064,49.0665 27.092776,0 49.056281,-21.968088 49.056281,-49.0665 C 99.056281,22.901587 77.092776,0.9335039 50,0.9335039 Z M 49.92749,2.9707923 A 47.027125,47.027125 0 0 1 96.954656,49.997954 47.027125,47.027125 0 0 1 49.927495,97.025112 47.027125,47.027125 0 0 1 2.9003335,49.997954 47.027125,47.027125 0 0 1 49.927495,2.9707923 Z m 0,3.3423795 A 43.685051,43.685051 0 0 0 6.2427131,49.997954 43.685051,43.685051 0 0 0 49.927495,93.682735 43.685051,43.685051 0 0 0 93.612278,49.997954 43.685051,43.685051 0 0 0 49.927495,6.3131718 Z M 61.536454,13.78221 c 4.681549,-0.04809 9.113554,2.609221 10.048589,6.767474 1.190439,4.656037 -1.666628,7.596919 -6.006688,8.309483 0,0 -0.510263,0.200212 -3.655888,0.249174 -6.257571,0.09688 -13.133339,0.960858 -18.003702,2.351816 -1.512416,0.42837 -4.219208,1.924196 -3.413863,3.659972 0.710225,1.808074 3.986697,3.302569 6.034256,4.295156 2.334798,1.131346 13.692745,6.371032 19.783653,9.352125 0,0 -18.085331,4.078949 -22.699171,6.289562 -9.159084,4.150778 -10.234696,8.862836 -8.097075,10.566321 2.229166,1.678904 6.413717,3.764063 18.993244,4.19202 11.343218,0.238138 17.076308,-0.132835 22.019063,1.919844 1.933497,0.802778 1.572955,2.139117 1.617574,2.516232 -1.026725,1.839336 -3.308148,3.138391 -7.500696,4.667897 -4.006724,1.462006 -11.496638,3.048271 -11.496638,3.048271 -6.142676,1.333869 -14.359037,2.132407 -16.522971,2.321189 -5.340648,0.466024 -9.490455,0.17596 -9.495094,0.175648 -1.1e-5,0 -0.0021,9.77e-4 -0.0021,9.77e-4 v -9.77e-4 h 0.0021 c 0.07515,-0.01601 14.515947,-3.192415 20.025674,-4.765935 C 55.332761,79.07965 63.266209,77.0758 63.16731,76.269283 63.097,75.696099 61.985216,75.471027 54.931353,75.847528 42.955573,76.915319 38.974304,75.677086 30.945482,73.043313 17.352481,68.583965 14.417236,61.340431 21.052122,55.26427 c 5.866154,-4.852715 15.866921,-9.066591 29.730117,-8.311527 0,0 -4.717552,-1.428024 -6.325294,-2.184341 -4.273353,-2.009967 -10.912966,-4.739987 -15.508926,-9.800432 -1.087751,-1.393241 -3.568915,-3.618046 -2.368156,-6.135354 1.838169,-3.853041 7.967445,-3.887814 16.667984,-4.399318 0,0 9.069827,-0.849601 13.432826,-1.555284 4.007574,-0.647973 4.97173,-1.907448 4.308438,-2.825653 -1.123319,-1.554929 -3.63874,-1.802506 -18.665447,-1.673743 0,0 12.157071,-3.495967 17.201049,-4.406465 0.669503,-0.120843 1.342961,-0.183068 2.01175,-0.189943 z" />
</svg>
