<?xml version="1.0" encoding="UTF-8" standalone="no"?>
<svg
   viewBox="0 0 200 200"
   version="1.1"
   id="svg200"
   sodipodi:docname="emacs.svg"
   inkscape:version="1.2.2 (b0a8486541, 2022-12-01)"
   width="200"
   height="200"
   xmlns:inkscape="http://www.inkscape.org/namespaces/inkscape"
   xmlns:sodipodi="http://sodipodi.sourceforge.net/DTD/sodipodi-0.dtd"
   xmlns="http://www.w3.org/2000/svg"
   xmlns:svg="http://www.w3.org/2000/svg">
  <defs
     id="defs204" />
  <sodipodi:namedview
     id="namedview202"
     pagecolor="#505050"
     bordercolor="#eeeeee"
     borderopacity="1"
     inkscape:showpageshadow="0"
     inkscape:pageopacity="0"
     inkscape:pagecheckerboard="0"
     inkscape:deskcolor="#505050"
     showgrid="false"
     inkscape:zoom="3.2507957"
     inkscape:cx="133.81339"
     inkscape:cy="128.43009"
     inkscape:window-width="1916"
     inkscape:window-height="1033"
     inkscape:window-x="0"
     inkscape:window-y="22"
     inkscape:window-maximized="1"
     inkscape:current-layer="svg200" />
  <linearGradient
     id="a">
    <stop
       offset="0"
       stop-color="#8381c5"
       id="stop182" />
    <stop
       offset=".566"
       stop-color="#7e55b3"
       stop-opacity=".996"
       id="stop184" />
    <stop
       offset="1"
       stop-color="#a52ecb"
       stop-opacity=".992"
       id="stop186" />
  </linearGradient>
  <linearGradient
     id="b"
     gradientTransform="matrix(0.40047551,0,0,0.4082963,-3.0312708,-4.7180894)"
     x1="15.581101"
     y1="14.784498"
     x2="498.96359"
     y2="14.784498"
     gradientUnits="userSpaceOnUse">
    <stop
       offset="0"
       stop-color="#411f5d"
       id="stop189" />
    <stop
       offset="1"
       stop-color="#5b2a85"
       id="stop191" />
  </linearGradient>
  <path
     id="path196"
     style="display:inline;fill:#808080;stroke-width:0.40048"
     d="M 100 6.15625 C 48.182402 6.15625 6.1757812 48.172039 6.1757812 100 C 6.1757812 151.82796 48.182402 193.84375 100 193.84375 C 151.81719 193.84375 193.82422 151.82796 193.82422 100 C 193.82422 48.172039 151.81719 6.1562499 100 6.15625 z M 99.861328 10.052734 A 89.94329 89.94329 0 0 1 189.80469 99.996094 A 89.94329 89.94329 0 0 1 99.861328 189.93945 A 89.94329 89.94329 0 0 1 9.9179688 99.996094 A 89.94329 89.94329 0 0 1 99.861328 10.052734 z M 99.861328 16.445312 A 83.551293 83.551293 0 0 0 16.310547 99.996094 A 83.551293 83.551293 0 0 0 99.861328 183.54688 A 83.551293 83.551293 0 0 0 183.41211 99.996094 A 83.551293 83.551293 0 0 0 99.861328 16.445312 z M 122.06445 30.730469 C 131.0183 30.638479 139.49488 35.720823 141.2832 43.673828 C 143.56002 52.578886 138.09564 58.203568 129.79492 59.566406 C 129.79492 59.566406 128.81899 59.949329 122.80273 60.042969 C 110.83461 60.228272 97.684116 61.88069 88.369141 64.541016 C 85.476521 65.360309 80.299554 68.221199 81.839844 71.541016 C 83.198208 74.999108 89.464732 77.857454 93.380859 79.755859 C 97.846358 81.919651 119.56939 91.940988 131.21875 97.642578 C 131.21875 97.642578 96.629042 105.44391 87.804688 109.67188 C 70.287179 117.6106 68.229982 126.6228 72.318359 129.88086 C 76.581826 133.09189 84.585129 137.07994 108.64453 137.89844 C 130.33937 138.35391 141.30438 137.64439 150.75781 141.57031 C 154.45579 143.10568 153.76622 145.66155 153.85156 146.38281 C 151.88786 149.90069 147.52445 152.38524 139.50586 155.31055 C 131.84267 158.10675 117.51758 161.14062 117.51758 161.14062 C 105.76921 163.69176 90.054719 165.21903 85.916016 165.58008 C 75.701583 166.47139 67.764733 165.91662 67.755859 165.91602 C 67.755836 165.91603 67.751953 165.91797 67.751953 165.91797 L 67.751953 165.91602 L 67.755859 165.91602 C 67.899578 165.88532 95.518816 159.81027 106.05664 156.80078 C 110.19937 155.61726 125.37275 151.78473 125.18359 150.24219 C 125.04915 149.14593 122.92273 148.71547 109.43164 149.43555 C 86.526938 151.4778 78.91243 149.10958 63.556641 144.07227 C 37.558894 135.54339 31.944995 121.68952 44.634766 110.06836 C 55.854275 100.78714 74.981573 92.727753 101.49609 94.171875 C 101.49609 94.171875 92.473378 91.44066 89.398438 89.994141 C 81.225293 86.149912 68.526481 80.928522 59.736328 71.25 C 57.655914 68.58531 52.910479 64.330185 55.207031 59.515625 C 58.722682 52.146362 70.445432 52.079856 87.085938 51.101562 C 87.085938 51.101562 104.43275 49.476631 112.77734 48.126953 C 120.44217 46.88765 122.28619 44.478799 121.01758 42.722656 C 118.86914 39.748724 114.0582 39.275212 85.318359 39.521484 C 85.318359 39.521484 108.56978 32.835156 118.2168 31.09375 C 119.49729 30.862628 120.78533 30.74362 122.06445 30.730469 z " />
</svg>
