<?xml version="1.0" encoding="UTF-8" standalone="no"?>
<!-- Created with Inkscape (http://www.inkscape.org/) -->

<svg
   width="100"
   height="100"
   viewBox="0 0 26.458333 26.458333"
   version="1.1"
   id="svg1645"
   inkscape:version="1.2.2 (b0a8486541, 2022-12-01)"
   sodipodi:docname="ghoul.svg"
   inkscape:export-filename="/home/anon/private/company/GHL/brand/ghoul-logo-badge-ring.png"
   inkscape:export-xdpi="300"
   inkscape:export-ydpi="300"
   xmlns:inkscape="http://www.inkscape.org/namespaces/inkscape"
   xmlns:sodipodi="http://sodipodi.sourceforge.net/DTD/sodipodi-0.dtd"
   xmlns="http://www.w3.org/2000/svg"
   xmlns:svg="http://www.w3.org/2000/svg"
   xmlns:rdf="http://www.w3.org/1999/02/22-rdf-syntax-ns#"
   xmlns:cc="http://creativecommons.org/ns#"
   xmlns:dc="http://purl.org/dc/elements/1.1/">
  <defs
     id="defs1639" />
  <sodipodi:namedview
     id="base"
     pagecolor="#ffffff"
     bordercolor="#666666"
     borderopacity="1.0"
     inkscape:pageopacity="0"
     inkscape:pageshadow="2"
     inkscape:zoom="2.8"
     inkscape:cx="141.07143"
     inkscape:cy="78.392857"
     inkscape:document-units="mm"
     inkscape:current-layer="layer1"
     showgrid="false"
     fit-margin-top="0"
     fit-margin-left="0"
     fit-margin-right="0"
     fit-margin-bottom="0"
     inkscape:window-width="1916"
     inkscape:window-height="879"
     inkscape:window-x="0"
     inkscape:window-y="1256"
     inkscape:window-maximized="1"
     inkscape:pagecheckerboard="true"
     units="px"
     inkscape:showpageshadow="0"
     inkscape:deskcolor="#d1d1d1" />
  <metadata
     id="metadata1642">
    <rdf:RDF>
      <cc:Work
         rdf:about="">
        <dc:format>image/svg+xml</dc:format>
        <dc:type
           rdf:resource="http://purl.org/dc/dcmitype/StillImage" />
      </cc:Work>
    </rdf:RDF>
  </metadata>
  <g
     inkscape:label="Layer 1"
     inkscape:groupmode="layer"
     id="layer1"
     transform="translate(277.20898,-59.4053)">
    <g
       id="g1274"
       transform="matrix(0.25788768,0,0,0.25788768,-212.96087,36.844736)">
      <circle
         style="fill:#000000;stroke-width:0.330322"
         id="circle866"
         cx="-197.83398"
         cy="138.7803"
         r="49.193001" />
      <circle
         style="fill:#ffffff;stroke-width:0.295496"
         id="path561"
         cx="-197.83398"
         cy="138.7803"
         r="44.006496" />
      <path
         style="opacity:1;fill:#000000;fill-opacity:1;stroke:none;stroke-width:0.227414;stroke-linecap:round;stroke-linejoin:round;stroke-miterlimit:4;stroke-dasharray:0.227414, 0.227414;stroke-dashoffset:75.5906;stroke-opacity:1"
         d="m -197.83391,99.092799 a 39.687505,39.687504 0 0 0 -39.68757,39.687461 39.687505,39.687504 0 0 0 39.68757,39.68754 39.687505,39.687504 0 0 0 39.68743,-39.68754 39.687505,39.687504 0 0 0 -39.68743,-39.687461 z m 1.05827,6.757961 c 4.79963,3.47032 17.87903,11.69874 14.98656,23.15544 -0.967,2.40113 -2.40977,4.90995 -4.637,6.22887 -5.09418,3.01656 -11.08575,3.54936 -17.59138,2.45068 0,0 -1.97193,0.46518 -0.5893,1.65398 1.51894,1.30605 8.6961,-0.36999 17.67564,-0.40486 13.40886,1.07305 13.04054,12.00829 10.9843,17.63046 -2.89284,7.90977 -10.57788,11.57766 -15.75564,12.9894 -5.17776,1.41162 -9.9907,0.38511 -13.56609,-1.64058 -3.57532,-2.02576 -5.91325,-5.05034 -6.14122,-7.63492 -0.22798,-2.58471 1.65409,-4.72912 6.51843,-4.99405 -9.34503,-3.38756 -12.96153,-7.98028 -11.18811,-12.90452 1.3773,-3.82436 3.7173,-4.10557 9.18774,-6.05614 -5.85597,-2.65119 -8.50931,-6.64495 -7.95995,-11.98149 0.41638,-4.04447 2.40294,-7.19051 5.95958,-9.43799 3.55665,-2.24748 7.69401,-3.17072 12.41241,-2.76958 2.32688,0.19788 -0.61991,-4.94918 -1.11087,-5.26199 0.34339,-0.43568 0.34467,-0.43492 0.8149,-1.02271 z m -2.558,9.26748 v 0.003 c -4.99922,0.0233 -10.46477,4.15549 -11.00558,9.40857 -0.61236,4.55028 3.13854,9.10371 5.94718,8.20611 4.39751,-1.40546 2.74124,-12.07309 5.82234,-12.23129 2.56534,-0.13172 -1.4856,10.33482 3.02561,13.34676 7.48294,3.10681 11.15249,-6.55764 8.39713,-12.47999 -2.76862,-5.84389 -7.30205,-6.1467 -11.94881,-6.24741 -0.0791,-0.005 -0.15853,-0.005 -0.23787,-0.005 z m -8.93484,25.56376 c -11.29278,9.69361 15.1935,8.58629 18.0695,16.3821 1.01081,4.61956 -3.69241,9.3492 -13.57623,7.58363 8.94662,3.1386 13.2454,1.70859 18.94638,-2.07679 6.44536,-4.27965 10.22435,-20.18843 -4.27545,-19.0811 -6.07303,-0.443 -22.69912,4.32843 -19.1642,-2.80784 z m 3.37903,14.6044 c -7.18996,2.38184 -1.50462,6.40259 4.30799,7.44941 5.26579,0.94862 8.62865,-3.87557 0.15812,-6.0676 -1.28583,-0.45031 -3.37305,-1.0801 -4.46611,-1.38181 z"
         id="path1306"
         inkscape:connector-curvature="0"
         inkscape:export-xdpi="96"
         inkscape:export-ydpi="96" />
    </g>
  </g>
</svg>
