<?xml version="1.0" encoding="UTF-8" standalone="no"?>
<svg
   data-name="Layer 1"
   viewBox="0 0 100 100"
   x="0px"
   y="0px"
   version="1.1"
   id="svg222"
   sodipodi:docname="lightbulb.svg"
   width="100"
   height="100"
   inkscape:version="1.2.2 (b0a8486541, 2022-12-01)"
   xmlns:inkscape="http://www.inkscape.org/namespaces/inkscape"
   xmlns:sodipodi="http://sodipodi.sourceforge.net/DTD/sodipodi-0.dtd"
   xmlns="http://www.w3.org/2000/svg"
   xmlns:svg="http://www.w3.org/2000/svg">
  <sodipodi:namedview
     id="namedview224"
     pagecolor="#505050"
     bordercolor="#eeeeee"
     borderopacity="1"
     inkscape:showpageshadow="0"
     inkscape:pageopacity="0"
     inkscape:pagecheckerboard="0"
     inkscape:deskcolor="#505050"
     showgrid="false"
     inkscape:zoom="2.551539"
     inkscape:cx="59.96381"
     inkscape:cy="49.969842"
     inkscape:window-width="1916"
     inkscape:window-height="879"
     inkscape:window-x="0"
     inkscape:window-y="1256"
     inkscape:window-maximized="1"
     inkscape:current-layer="svg222" />
  <defs
     id="defs214">
    <style
       id="style212">
      .cls-1 {
        fill-rule: evenodd;
        stroke-width: 0px;
      }
    </style>
  </defs>
  <path
     class="cls-1"
     d="m 72.933828,7.7633677 -0.46952,-2.514582 h -3.05715 l -0.46953,2.525016 c -0.0835,0.44866 -0.42779,0.782547 -0.845151,0.876452 -0.594729,0.146075 -1.179039,0.3338857 -1.742469,0.5738667 -0.57387,0.239981 -1.11643,0.521698 -1.648561,0.8451506 -0.37563,0.229547 -0.845149,0.208679 -1.189469,-0.0313 l -2.1181,-1.4503183 -2.15982,2.1598273 1.45031,2.118092 c 0.26085,0.375622 0.25042,0.855584 0.0105,1.220772 -0.31302,0.521698 -0.59474,1.064264 -0.82428,1.617263 v 0 c 0,0 0,0 0,0 -0.23998,0.573867 -0.42779,1.158168 -0.57387,1.763338 -0.10434,0.438226 -0.4591,0.751244 -0.87645,0.824282 l -2.51458,0.469528 v 3.057148 l 2.52501,0.469528 c 0.44866,0.08347 0.78255,0.427791 0.87645,0.845149 0.14608,0.594736 0.33389,1.179037 0.57387,1.74247 0.23998,0.573868 0.5217,1.116433 0.84515,1.648565 0.22955,0.375622 0.20868,0.84515 -0.0313,1.189471 l -1.45033,2.118091 2.15984,2.159828 2.11808,-1.450319 c 0.37563,-0.260848 0.85559,-0.250414 1.22078,-0.01043 0.5217,0.313018 1.06426,0.594735 1.61726,0.824282 v 0 c 0,0 0,0 0,0 0.57387,0.239981 1.15817,0.427792 1.76334,0.573867 0.43823,0.10434 0.75124,0.459095 0.82428,0.876453 l 0.46953,2.514582 h 3.05715 l 0.46953,-2.525016 c 0.0835,-0.448661 0.42779,-0.782547 0.84514,-0.876453 0.59474,-0.146075 1.17904,-0.333886 1.74248,-0.573867 0.57386,-0.239981 1.11643,-0.521697 1.64856,-0.84515 0.37562,-0.229547 0.84515,-0.208679 1.18947,0.0313 l 2.1181,1.450319 2.15982,-2.159827 -1.45032,-2.118092 c -0.26085,-0.375623 -0.25041,-0.855585 -0.0104,-1.220773 0.31302,-0.521697 0.59474,-1.064263 0.82428,-1.617262 0.23999,-0.573868 0.4278,-1.158169 0.57387,-1.763338 0.10434,-0.438226 0.45909,-0.751245 0.87645,-0.824282 l 2.51459,-0.469528 v -3.057148 l -2.52502,-0.469528 c -0.44866,-0.08347 -0.78255,-0.427792 -0.87645,-0.84515 -0.14608,-0.594735 -0.33389,-1.179037 -0.57387,-1.74247 -0.23998,-0.573868 -0.5217,-1.116433 -0.84515,-1.648564 -0.22955,-0.375623 -0.20868,-0.84515 0.0313,-1.189471 l 1.45032,-2.118092 -2.15982,-2.1598273 -2.11809,1.4503183 c -0.37563,0.260849 -0.85559,0.250415 -1.22078,0.01044 -0.51126,-0.3130186 -1.05382,-0.5843006 -1.62769,-0.8242826 l -0.0522,-0.02087 c -0.553,-0.229546 -1.12686,-0.4069237 -1.71116,-0.5529987 -0.43823,-0.104339 -0.75125,-0.459094 -0.82429,-0.876452 v 0 z m 1.22078,9.2131793 c 0.42779,-0.427792 1.12686,-0.427792 1.55466,0 0.42779,0.427792 0.42779,1.126867 0,1.554658 l -5.0083,5.008297 c -0.26085,0.260849 -0.59474,0.386056 -0.92862,0.386056 -0.33389,0 -0.66778,-0.125207 -0.92863,-0.386056 l -2.69195,-2.691959 c -0.4278,-0.427793 -0.4278,-1.126867 0,-1.554659 0.42779,-0.427792 1.126859,-0.427792 1.55466,0 l 2.06592,2.065922 z M 49.572213,92.612252 v 2.7024 c 0,0.44866 -0.187811,0.86601 -0.479958,1.15817 v 0 c -0.302587,0.30258 -0.709513,0.49039 -1.158169,0.49039 h -8.555841 c -0.459093,0 -0.866017,-0.18781 -1.168602,-0.47996 -0.302585,-0.30259 -0.479962,-0.70951 -0.479962,-1.1686 v -2.7024 h -2.681526 c -0.459093,0 -0.866017,-0.1878 -1.168602,-0.47996 -0.302584,-0.29215 -0.479962,-0.7095 -0.479962,-1.1686 v -4.52833 h -2.399808 c -0.448661,0 -0.866019,-0.18781 -1.168603,-0.4904 v 0 c -0.302585,-0.29215 -0.479962,-0.70951 -0.479962,-1.1686 v -5.22742 c 0,-0.60516 0.490396,-1.09556 1.095565,-1.09556 h 26.439635 c 0.60516,0 1.09556,0.4904 1.09556,1.09556 v 5.22742 c 0,0.44866 -0.18781,0.86601 -0.47996,1.15816 v 0 c -0.30259,0.30259 -0.70951,0.4904 -1.15817,0.4904 h -2.39981 v 4.52834 c 0,0.44866 -0.18781,0.86601 -0.47996,1.15816 v 0 c -0.30258,0.30259 -0.70951,0.4904 -1.15817,0.4904 h -2.681522 z m -9.661836,0 v 2.1494 h 7.460276 v -2.1494 z M 29.695538,36.216754 c 0,0.594735 0.239981,1.126867 0.626037,1.512923 0.386057,0.386056 0.918188,0.626037 1.512924,0.626037 0.594735,0 1.126866,-0.239981 1.512923,-0.626037 0.386056,-0.386056 0.626036,-0.918188 0.626036,-1.512923 0,-0.594736 -0.239981,-1.126867 -0.626036,-1.512924 -0.386057,-0.386056 -0.918188,-0.626037 -1.512923,-0.626037 -0.594736,0 -1.126867,0.239981 -1.512924,0.626037 -0.386057,0.386057 -0.626037,0.918188 -0.626037,1.512924 z m -0.928621,3.067582 c 0.782546,0.782546 1.867677,1.272941 3.067582,1.272941 1.199904,0 2.285035,-0.490395 3.067581,-1.272941 0.532132,-0.532132 0.928622,-1.210339 1.126867,-1.961583 h 2.608488 v 35.162409 h -8.931463 v -5.09176 c 0,-1.5651 -0.333886,-3.01542 -0.991225,-4.31966 -0.646905,-1.30424 -1.606829,-2.45198 -2.858903,-3.39103 -3.651884,-2.75457 -6.646427,-6.33342 -8.71235,-10.465255 -1.98245,-3.975335 -3.098883,-8.461934 -3.098883,-13.209382 0,-8.180219 3.317996,-15.577891 8.670612,-20.940942 5.363052,-5.3630506 12.760723,-8.6706123 20.940942,-8.6706123 2.660658,0 5.237843,0.34432 7.679382,1.001659 2.05549,0.552999 4.02751,1.314678 5.87432,2.2746007 -0.20868,0.250415 -0.32345,0.5529996 -0.35476,0.8660176 -0.0313,0.354755 0.0522,0.709509 0.26085,1.022527 l 1.36685,1.992885 c -0.22954,0.427793 -0.44866,0.876452 -0.63647,1.335546 v 0 c -0.18781,0.44866 -0.35476,0.918188 -0.49039,1.39815 l -2.36851,0.438226 c -0.36519,0.07304 -0.68865,0.260849 -0.91819,0.532131 -0.22955,0.271283 -0.36519,0.626038 -0.36519,0.991225 v 4.110977 c 0,0.375623 0.13564,0.719943 0.36519,0.991226 0.22954,0.271283 0.54257,0.469528 0.91819,0.532131 l 2.36851,0.438226 c 0.13563,0.469528 0.30258,0.939056 0.49039,1.387716 0.18781,0.459094 0.40693,0.907754 0.63647,1.335546 l -1.36685,1.992885 c -0.20867,0.302584 -0.29215,0.667773 -0.26085,1.022527 0.0313,0.354754 0.18781,0.699075 0.44866,0.959923 l 2.91108,2.911073 c 0.26084,0.260849 0.60516,0.417358 0.95992,0.44866 0.35476,0.0313 0.70951,-0.05217 1.02253,-0.260849 l 1.99288,-1.366848 c 0.4278,0.229547 0.87646,0.448661 1.33555,0.636472 v 0 c 0.44866,0.187811 0.91818,0.354754 1.39815,0.490395 l 0.43822,2.368507 c 0.073,0.375623 0.26085,0.688641 0.53213,0.918188 0.27129,0.229547 0.62604,0.365189 0.99123,0.365189 h 4.11098 c 0.073,0 0.15651,0 0.22955,-0.02087 -0.20868,4.184014 -1.29382,8.148916 -3.06759,11.696459 -2.06592,4.131841 -5.06047,7.710691 -8.71234,10.465251 -1.25208,0.93905 -2.212,2.08679 -2.85891,3.39103 -0.64691,1.30425 -0.99123,2.765 -0.99123,4.31966 v 5.09177 H 48.664459 V 40.3799 h 2.608489 c 0.19824,0.751245 0.59473,1.429451 1.12687,1.961583 0.78255,0.782547 1.86768,1.272943 3.06758,1.272943 1.1999,0 2.28503,-0.490396 3.06758,-1.272943 0.78255,-0.782546 1.27294,-1.867677 1.27294,-3.067582 0,-1.199904 -0.49039,-2.285035 -1.27294,-3.067581 -0.78255,-0.782547 -1.86768,-1.272943 -3.06758,-1.272943 -1.1999,0 -2.28503,0.490396 -3.06758,1.272943 -0.53214,0.532131 -0.92863,1.210338 -1.12687,1.961583 h -2.764997 c -0.563431,0 -1.074695,0.229546 -1.450317,0.605169 -0.375622,0.375622 -0.605169,0.886886 -0.605169,1.450319 V 72.464302 H 44.751731 V 29.841609 h 2.608488 c 0.198245,0.751244 0.594735,1.429452 1.126863,1.961583 0.78255,0.782546 1.867676,1.272942 3.067586,1.272942 1.1999,0 2.28503,-0.490396 3.06758,-1.272942 0.78254,-0.782547 1.27294,-1.867677 1.27294,-3.067582 0,-1.199904 -0.4904,-2.285035 -1.27294,-3.067582 -0.78255,-0.782546 -1.86768,-1.272942 -3.06758,-1.272942 -1.19991,0 -2.285036,0.490396 -3.067586,1.272942 -0.532128,0.532132 -0.928618,1.210339 -1.126863,1.961583 h -2.764997 c -0.563434,0 -1.074698,0.229547 -1.45032,0.605169 -0.375622,0.375623 -0.605169,0.886886 -0.605169,1.45032 V 72.464302 H 40.838999 V 37.155809 c 0,-0.563433 -0.229547,-1.074697 -0.605169,-1.450319 -0.375623,-0.375623 -0.886886,-0.605169 -1.45032,-0.605169 h -2.764997 c -0.198245,-0.751245 -0.594735,-1.429452 -1.126867,-1.961583 -0.782546,-0.782547 -1.867677,-1.272942 -3.067581,-1.272942 -1.199905,0 -2.285036,0.490395 -3.067582,1.272942 -0.782547,0.782546 -1.272942,1.867677 -1.272942,3.067582 0,1.199904 0.490395,2.285035 1.272942,3.067581 v 0 z m 28.202971,1.512922 c 0.38606,-0.386056 0.62603,-0.918187 0.62603,-1.512922 0,-0.594736 -0.23997,-1.126867 -0.62603,-1.512924 -0.38606,-0.386056 -0.91819,-0.626037 -1.51292,-0.626037 -0.59474,0 -1.12687,0.239981 -1.51293,0.626037 -0.38606,0.386057 -0.62604,0.918188 -0.62604,1.512924 0,0.594735 0.23998,1.126866 0.62604,1.512922 0.38606,0.386056 0.91819,0.626037 1.51293,0.626037 0.59473,0 1.12686,-0.239981 1.51292,-0.626037 z m -3.9023,-10.538291 c 0.38606,-0.386056 0.62604,-0.918188 0.62604,-1.512923 0,-0.594735 -0.23998,-1.126867 -0.62604,-1.512923 -0.38606,-0.386056 -0.91819,-0.626037 -1.51292,-0.626037 -0.59474,0 -1.12687,0.239981 -1.51293,0.626037 -0.386054,0.386056 -0.626033,0.918188 -0.626033,1.512923 0,0.594735 0.239979,1.126867 0.626033,1.512923 0.38606,0.386056 0.91819,0.626037 1.51293,0.626037 0.59473,0 1.12686,-0.239981 1.51292,-0.626037 z m 4.52833,44.417325 H 29.705972 v 0.93906 h 27.889946 z m -22.005197,11.75907 v 3.97533 h 16.130887 v -3.97533 z m 20.189697,-5.78042 h -24.23807 v 3.57885 h 24.23807 z M 75.385807,33.743907 c 0.0104,0.219113 0.0313,0.44866 0.0417,0.667773 0.0313,0.563434 0.0417,1.085131 0.0417,1.575527 0,5.102202 -1.19991,9.922688 -3.33886,14.190175 -2.212,4.43443 -5.43609,8.27412 -9.36969,11.23736 -0.97036,0.73038 -1.71117,1.60683 -2.212,2.61892 -0.50083,1.00166 -0.76168,2.12853 -0.76168,3.33887 v 9.33838 c 0,0.60517 -0.4904,1.09557 -1.09556,1.09557 h -30.08101 c -0.605169,0 -1.095565,-0.4904 -1.095565,-1.09557 v -9.33838 c 0,-1.22078 -0.260848,-2.34764 -0.761678,-3.33887 -0.50083,-1.00166 -1.24164,-1.88854 -2.211998,-2.61892 -3.933599,-2.96324 -7.157691,-6.80293 -9.369688,-11.23736 -2.138961,-4.277921 -3.338865,-9.087973 -3.338865,-14.190175 0,-8.785388 3.557977,-16.736059 9.317519,-22.4956 5.759541,-5.7595414 13.710212,-9.3175184 22.4956,-9.3175184 2.848469,0 5.613465,0.375622 8.253256,1.085131 2.431109,0.657339 4.75788,1.58596 6.92814,2.7649971 l 1.38772,-1.3877151 c 0.26084,-0.260849 0.60516,-0.417358 0.95992,-0.448661 0.35476,-0.0313 0.70951,0.05217 1.022529,0.26085 l 1.992881,1.366847 c 0.427799,-0.229547 0.876459,-0.44866 1.335549,-0.636471 0.448661,-0.187811 0.91818,-0.354755 1.38771,-0.490396 l 0.43823,-2.368507 c 0.073,-0.375622 0.26085,-0.6886409 0.53213,-0.918188 0.27129,-0.229546 0.626041,-0.3651879 0.99123,-0.3651879 h 4.11097 c 0.37562,0 0.71994,0.1356419 0.99123,0.3651879 0.27128,0.2295471 0.46953,0.542566 0.53213,0.918188 l 0.43823,2.368507 c 0.45909,0.135641 0.89732,0.292151 1.33554,0.469528 0.0209,0 0.0417,0.01044 0.0626,0.02087 0.45909,0.187812 0.89732,0.406924 1.33554,0.636471 l 1.99289,-1.366847 c 0.30258,-0.208679 0.66777,-0.2921509 1.02253,-0.260849 0.35475,0.0313 0.699071,0.187811 0.95992,0.44866 l 2.91107,2.9110717 c 0.26085,0.260849 0.41736,0.6051697 0.44866,0.9599237 0.0313,0.354754 -0.0522,0.709508 -0.26085,1.022527 l -1.36685,1.992885 c 0.22955,0.427792 0.44866,0.876452 0.63648,1.335546 0.18781,0.44866 0.35475,0.918188 0.49039,1.387715 l 2.36851,0.438226 c 0.37562,0.07304 0.68864,0.260849 0.918181,0.532132 0.229549,0.271282 0.365189,0.626037 0.365189,0.991225 v 4.110977 c 0,0.375623 -0.13564,0.719943 -0.365189,0.991226 -0.229541,0.271282 -0.542561,0.469527 -0.918181,0.532131 l -2.36851,0.438226 c -0.13564,0.479962 -0.30258,0.939056 -0.49039,1.387716 -0.18782,0.459093 -0.40693,0.907754 -0.63648,1.335546 l 1.36685,1.992884 c 0.20868,0.302585 0.29215,0.667773 0.26085,1.022527 -0.0313,0.354755 -0.18781,0.699075 -0.44866,0.959924 l -2.91107,2.911073 c -0.26085,0.260848 -0.60517,0.417358 -0.95992,0.44866 -0.35476,0.0313 -0.709509,-0.05217 -1.02253,-0.260849 l -1.99289,-1.366848 c -0.42779,0.229547 -0.87645,0.44866 -1.33554,0.636471 -0.32346,0.135642 -0.64691,0.250415 -0.98079,0.365189 v 0 z M 70.940947,10.67444 c 2.650221,0 5.060471,1.074697 6.792501,2.817167 1.732039,1.74247 2.81717,4.142278 2.81717,6.792502 0,2.650224 -1.0747,5.060467 -2.81717,6.792503 -1.74246,1.74247 -4.14228,2.817167 -6.792501,2.817167 -2.65023,0 -5.060469,-1.074697 -6.792499,-2.817167 -1.742471,-1.74247 -2.817171,-4.142279 -2.817171,-6.792503 0,-2.650224 1.0747,-5.060466 2.817171,-6.792502 1.742469,-1.732036 4.142269,-2.817167 6.792499,-2.817167 z m 5.237851,4.371825 c 1.335539,1.335546 2.170259,3.19279 2.170259,5.237844 0,2.045055 -0.82428,3.902298 -2.170259,5.237844 -1.335551,1.335546 -3.192801,2.170262 -5.237851,2.170262 -2.04506,0 -3.9023,-0.824282 -5.23784,-2.170262 -1.335549,-1.335546 -2.17026,-3.192789 -2.17026,-5.237844 0,-2.045054 0.82427,-3.902298 2.17026,-5.237844 1.34598,-1.335545 3.19278,-2.170261 5.23784,-2.170261 2.04505,0 3.9023,0.824282 5.237851,2.170261 z"
     id="path216" />
</svg>
