<?xml version="1.0" encoding="UTF-8" standalone="no"?>
<svg
   viewBox="0 0 150 150"
   x="0px"
   y="0px"
   version="1.1"
   id="svg306"
   sodipodi:docname="meat.svg"
   width="150"
   height="150"
   inkscape:version="1.2.2 (b0a8486541, 2022-12-01)"
   xml:space="preserve"
   xmlns:inkscape="http://www.inkscape.org/namespaces/inkscape"
   xmlns:sodipodi="http://sodipodi.sourceforge.net/DTD/sodipodi-0.dtd"
   xmlns="http://www.w3.org/2000/svg"
   xmlns:svg="http://www.w3.org/2000/svg"
   xmlns:rdf="http://www.w3.org/1999/02/22-rdf-syntax-ns#"
   xmlns:cc="http://creativecommons.org/ns#"
   xmlns:dc="http://purl.org/dc/elements/1.1/"><defs
     id="defs310" /><sodipodi:namedview
     id="namedview308"
     pagecolor="#505050"
     bordercolor="#eeeeee"
     borderopacity="1"
     inkscape:showpageshadow="0"
     inkscape:pageopacity="0"
     inkscape:pagecheckerboard="0"
     inkscape:deskcolor="#505050"
     showgrid="false"
     inkscape:zoom="2.144664"
     inkscape:cx="136.15186"
     inkscape:cy="35.20365"
     inkscape:window-width="1916"
     inkscape:window-height="967"
     inkscape:window-x="0"
     inkscape:window-y="1168"
     inkscape:window-maximized="1"
     inkscape:current-layer="g300" /><title
     id="title292">Meat</title><g
     data-name="Effect dot"
     id="g296"
     transform="matrix(2.4515352,0,0,2.4515352,-2.4669188,-3.1033251)"><path
       d="m 6.23618,14.31393 0.00228,0.75225 -0.78005,0.0023 -0.00229,-0.75225 z m 2.46814,-3.96159 c 0.05446,0.003 0.11617,7.6e-4 0.17559,0.0023 l -0.01029,0.78 c -0.056,0.0011 -0.11617,-3.8e-4 -0.1733,-0.0023 A 2.4848,2.4848 0 0 0 6.91377,11.70939 2.69087,2.69087 0 0 0 6.27084,13.679 v 0.056 L 5.49078,13.73309 V 13.67748 A 2.63691,2.63691 0 0 0 4.87642,11.76886 2.60243,2.60243 0 0 0 3.04664,11.137 h -3.8e-4 c -0.05409,0 -0.10855,-7.7e-4 -0.16416,-0.0023 l 0.011,-0.78 q 0.08285,0 0.1634,0.0023 A 2.4752,2.4752 0 0 0 4.82538,9.786 2.76734,2.76734 0 0 0 5.49078,7.7536 l 0.78006,0.00114 c 0.00916,1.7208 0.78348,2.54999 2.43348,2.5976 z m -1.741,0.37136 a 2.54151,2.54151 0 0 1 -1.07565,-1.09695 2.57255,2.57255 0 0 1 -0.521,0.72064 2.49024,2.49024 0 0 1 -0.56752,0.40983 2.50181,2.50181 0 0 1 1.07638,1.07334 2.53825,2.53825 0 0 1 0.49363,-0.67988 2.51069,2.51069 0 0 1 0.59413,-0.42698 z m -5.369,-0.3626 0.00229,0.78006 0.75225,-0.0019 -0.00229,-0.78005 z m 8.52042,-0.03428 -0.75263,0.0019 0.00228,0.78 0.75263,-0.0019 z M 6.28722,7.26564 6.28493,6.51339 5.50488,6.51568 5.50716,7.26793 Z m 50.765,5.37273 0.68089,0.68089 -0.68089,0.68088 -0.68089,-0.68088 z m 0.993,-0.993 0.68089,0.68088 -0.68089,0.68089 -0.68089,-0.68089 z m -2.03818,0 0.68089,0.68088 -0.68089,0.68089 -0.68089,-0.68089 z m 0.993,-0.993 0.68089,0.68088 L 57,12.01422 56.31911,11.33333 Z M 55.5,5.41367 H 54.17274 V 4.54132 H 55.5 Z M 53.03567,5.39283 H 51.70841 V 4.52049 h 1.32726 z M 54.04123,6.8516 H 53.16889 V 5.52605 h 0.87234 z M 54.06206,4.42894 H 53.18972 V 3.10168 h 0.87234 z m -38.57,0.65923 h -1.3273 V 4.21583 H 15.492 Z M 13.02773,5.06734 h -1.3273 V 4.195 h 1.32726 z m 1.00556,1.45877 H 13.16095 V 5.20055 h 0.87234 z M 14.05413,4.10345 H 13.18178 V 2.77619 h 0.87235 z m 37.51437,56.086 0.0023,0.75225 0.78006,-0.0023 -0.0023,-0.75225 z m 3.24819,-3.96387 c 0.05447,0.003 0.11617,7.6e-4 0.17559,0.0023 l -0.01029,0.78006 c -0.056,0.0011 -0.11617,-3.8e-4 -0.1733,-0.0023 a 2.48481,2.48481 0 0 0 -1.78254,0.577 2.6909,2.6909 0 0 0 -0.64294,1.96956 v 0.056 l -0.78005,-0.0019 v -0.05561 a 2.63694,2.63694 0 0 0 -0.61437,-1.90862 2.60248,2.60248 0 0 0 -1.82978,-0.63189 h -3.8e-4 c -0.05408,0 -0.10855,-7.6e-4 -0.16416,-0.0023 l 0.011,-0.78006 q 0.08284,0 0.1634,0.0023 a 2.47522,2.47522 0 0 0 1.76883,-0.57095 2.76739,2.76739 0 0 0 0.66541,-2.03241 l 0.78005,0.0012 c 0.0092,1.72088 0.78349,2.55009 2.43349,2.59768 z m -1.741,0.37136 A 2.54162,2.54162 0 0 1 52,55.5 a 2.5725,2.5725 0 0 1 -0.52105,0.72064 2.49024,2.49024 0 0 1 -0.56752,0.40983 2.50158,2.50158 0 0 1 1.07638,1.07333 2.53863,2.53863 0 0 1 0.49363,-0.67988 2.51093,2.51093 0 0 1 0.59418,-0.42692 z m -5.369,-0.3626 0.0023,0.78005 0.75225,-0.0019 -0.0023,-0.78006 z m 8.52041,-0.03428 -0.75263,0.0019 0.0023,0.78006 0.75263,-0.0019 z m -3.82752,-3.06118 -0.0023,-0.75225 -0.78005,0.0023 0.0023,0.75224 z m 9.2048,-2.17747 H 60.2771 v -0.87235 h 1.32725 z M 59.14,50.94059 H 57.81277 V 50.06824 H 59.14 Z m 1.00556,1.45877 H 59.27321 V 51.0738 h 0.87235 z m 0.02083,-2.42267 h -0.87235 v -1.32726 h 0.87235 z M 8.38559,58.805 9.06648,59.48589 8.38559,60.16678 7.70471,59.48589 Z m 0.993,-0.993 0.68088,0.68089 L 9.37859,59.17378 8.69767,58.493 Z m -2.03819,0 0.68089,0.68089 L 7.3404,59.17378 6.65949,58.493 Z M 8.3334,56.819 9.01422,57.5 8.33333,58.18089 7.65245,57.5 Z m -1.5,-5.23878 H 5.50607 V 50.708 H 6.83333 Z M 4.369,51.5595 H 3.04175 V 50.68715 H 4.369 Z m 1.00555,1.45877 H 4.50222 V 51.69271 H 5.37456 Z M 5.39539,50.59561 H 4.523 v -1.32726 h 0.8724 z"
       id="path294" /></g><g
     id="g300"
     transform="matrix(1.9728146,0,0,1.9728146,14.064139,14.182492)"><path
       d="m 18.972809,10.080943 19.483134,7.128217 6.807763,-8.3939945 -8.749965,1.9464095 c -0.311703,0.07751 -0.598691,-0.116103 -0.648701,-0.412844 l -1.931758,-11.4074372 -0.08581,-0.031282 -8.821783,7.4867212 c -0.240509,0.194102 -0.567958,0.152168 -0.745673,-0.07906 L 18.819311,-0.82467214 18.628295,9.9817675 c 0.115862,0.02574 0.231034,0.05788 0.344487,0.099239 z m 1.288471,2.640049 c 1.620385,0.590789 1.825617,0.484347 1.451212,1.511254 -0.0981,0.269095 -0.39584,0.407731 -0.664937,0.309616 -1.620385,-0.590789 -1.82562,-0.484345 -1.451213,-1.511249 0.09669,-0.269615 0.395841,-0.407732 0.664938,-0.309621 z m 13.901142,5.068317 c 1.620385,0.590789 1.825617,0.484347 1.45121,1.511252 -0.0981,0.269094 -0.395838,0.40773 -0.666386,0.309087 -1.620387,-0.590788 -1.82562,-0.484344 -1.451213,-1.511248 0.09955,-0.268567 0.397295,-0.407202 0.666389,-0.309091 z M 29.529825,16.10028 c 1.620385,0.590787 1.82562,0.484345 1.451212,1.511251 -0.09811,0.269094 -0.395839,0.407729 -0.66639,0.309086 -1.620385,-0.590787 -1.825618,-0.484345 -1.451212,-1.511249 0.0981,-0.269096 0.39584,-0.407733 0.66639,-0.309088 z m -4.634088,-1.689576 c 1.620387,0.590789 1.82562,0.484346 1.451214,1.511251 -0.09811,0.269095 -0.39584,0.40773 -0.66639,0.309087 -1.620385,-0.590787 -1.825618,-0.484346 -1.451211,-1.511247 0.0981,-0.269096 0.397295,-0.407203 0.666387,-0.309091 z M 47.8388,6.2407105 c 1.466188,0.534567 0.654783,2.760045 -0.811403,2.225479 -1.46671,-0.533142 -0.654788,-2.7600479 0.811403,-2.225479 z M 46.493537,5.3382518 c 1.792323,-0.8345656 3.703904,0.9236327 3.027736,2.7781997 -0.484716,1.329457 -2.069032,1.869126 -3.264915,1.126585 l -6.990445,8.6193185 c 1.80649,2.13681 -0.408669,5.260986 -3.00212,4.315422 L 17.109435,15.192643 C 14.515986,14.24708 14.830059,10.429689 17.589373,9.9576425 l 0.197178,-11.0945526 c -2.179589,-0.3134949 -2.61927,-3.2883965 -0.623007,-4.2167193 2.358021,-1.0979759 4.342444,2.1007008 2.349714,3.7339397 l 5.257994,6.875644 8.20149,-6.9598522 c -1.49508,-1.7299493 0.298974,-4.3273199 2.441526,-3.5461512 2.144006,0.7816975 1.844785,3.9255561 -0.413845,4.28543626 l 1.797261,10.60536834 8.44952,-1.877923 c -0.187118,-1.00092 0.329462,-1.9974268 1.246476,-2.4244251 z m -12.916181,-8.00008 c 0.658984,1.4152398 2.806604,0.4152053 2.147658,-1.0000228 -0.657496,-1.4146968 -2.806606,-0.4152041 -2.147658,1.0000228 z M 19.176054,-3.8405417 c 0.658983,1.4152403 -1.48866,2.4152257 -2.147658,1.0000215 -0.659526,-1.41375 1.488128,-2.4137723 2.147658,-1.0000215 z m 1.464361,11.6491842 0.05194,-2.9357579 1.340154,1.7525649 z m 2.437882,-0.711287 -2.615574,2.220221 c -0.36734,0.334089 -0.887995,0.05362 -0.880755,-0.382092 l 0.09889,-5.5684108 0.0014,4.995e-4 c 0.0092,-0.486111 0.630076,-0.6931042 0.928281,-0.3042197 l 2.528654,3.306443 c 0.183014,0.216685 0.156285,0.543097 -0.06093,0.727566 z m 14.401224,8.4244965 -0.572767,-3.382683 c -0.04752,-0.280987 0.142135,-0.548026 0.423105,-0.595517 l 4.063405,-0.902999 c 0.47708,-0.106197 0.81904,0.45187 0.514636,0.830304 l 0.0013,4.63e-4 -3.508341,4.325335 c -0.294615,0.360601 -0.875418,0.18179 -0.921456,-0.274987 z m 0.531316,-3.070795 2.153674,-0.478726 -1.849804,2.280263 z m -4.58891,-10.9161503 1.536135,9.0699143 c 0.04752,0.28099 -0.142136,0.548029 -0.421655,0.596051 l -5.250823,1.167155 c -0.205987,0.04519 -0.410802,-0.03937 -0.528802,-0.199376 L 25.48048,7.8843055 c -0.168717,-0.219734 -0.132608,-0.531194 0.0756,-0.709069 l 7.017985,-5.9561752 c 0.311464,-0.26216124 0.784854,-0.078032 0.847324,0.3155087 z m 0.432226,8.7581363 -4.470491,0.99356 -2.781922,-3.6377685 5.948982,-5.0486966 z m 3.916663,7.74753 -19.153729,-6.983393 c -1.384751,-0.504878 -2.733145,0.92003 -2.096356,2.287609 0.182072,0.39102 0.511545,0.712192 0.945015,0.870235 l 19.153729,6.983394 c 1.384751,0.504876 2.734598,-0.9195 2.096357,-2.287606 -0.181151,-0.389036 -0.510098,-0.711667 -0.945017,-0.870237 z"
       fill-rule="evenodd"
       id="path482"
       style="stroke-width:0.396342" /><g
       id="g697"
       transform="matrix(0.22122137,0.49599027,-0.49599027,0.22122137,45.334976,-11.885714)"
       inkscape:transform-center-x="4.0183164"
       inkscape:transform-center-y="-11.397837"><path
         d="m 105.369,4.6 c 2.1,-0.931 10.679,-1.278 10.355,2.7 -0.225,2.706 -2.214,4.7 -4.128,6.441 -2.538,2.324 -4.92,4.8 -7.273,7.319 -5.99,6.4 -10.407,13.905 -15.379,21.063 -2.469,3.556 -5.1,7.042 -7.245,10.812 a 76.136,76.136 0 0 0 -5.215,12.188 c -2.92,8.175 -5.92,16.3 -9.2,24.341 a 23.708,23.708 0 0 1 -5.926,8.95 35.141,35.141 0 0 1 -4.006,3.226 c -1.371,0.885 -3.157,1.48 -4.123,2.868 l -0.017,0.017 c 0.248,2.313 0.983,4.527 0.572,6.892 a 17.071,17.071 0 0 1 -2.37,5.972 c -0.1,1.914 0.925,4.319 -0.873,5.817 -1.261,1.058 -2.747,0.826 -4.267,0.589 a 0.764,0.764 0 0 1 -0.393,-0.179 0.821,0.821 0 0 1 -0.318,-0.318 11.193,11.193 0 0 1 -1.4,-4.059 16.868,16.868 0 0 0 -2.549,-5.868 c -0.827,-1.428 -0.781,-3.151 -1.261,-4.683 -0.8,-2.544 -2.729,-3.273 -4.995,-4.14 -0.012,0 -0.017,0.006 -0.029,0.006 -2.087,0.116 -4.2,0.711 -6.279,0.121 a 17.226,17.226 0 0 1 -5.706,-2.8 20.586,20.586 0 0 1 -4.052,-3.975 c -1.874,-2.451 -3.972,-3.561 -6.47,-5.215 l -0.017,-0.017 a 0.668,0.668 0 0 1 -0.475,-0.6 8.807,8.807 0 0 1 2.729,-7.2 0.783,0.783 0 0 1 0.781,-0.225 0.762,0.762 0 0 1 0.5,-0.127 c 3.509,0.225 5.753,-5.175 8.21,-7.262 1.376,-1.174 3.29,-1.815 4.481,-3.215 A 23.38,23.38 0 0 0 31.91,69.385 C 34.951,63.442 40.23,59.84 45.676,56.174 A 40.9,40.9 0 0 0 54.9,48.348 c 2.226,-2.711 5.175,-5.781 6.863,-8.875 3.145,-5.752 2.024,-12.54 6.88,-17.524 2.475,-2.538 5.169,-4.469 8.737,-5.105 3.734,-0.659 7.3,-0.862 10.806,-2.463 3.59,-1.636 7.9,-1.96 11.1,-4.423 2.123,-1.648 3.574,-4.232 6.083,-5.358 z m 8.274,4.076 c 1.023,-2.417 -1.133,-2.694 -2.827,-2.74 -2.261,1.717 -3.805,3.347 -6.464,4.573 a 25.4,25.4 0 0 1 -5.84,2.324 3.266,3.266 0 0 1 -0.266,1.555 c 0.145,-0.115 0.29,-0.225 0.428,-0.329 1.2,-0.891 2.082,-1.2 2.134,-1.1 0.069,0.133 -0.659,0.648 -1.689,1.625 a 29.164,29.164 0 0 0 -2.393,2.579 4.3,4.3 0 0 0 -0.266,0.769 c -0.272,1.208 -0.1,2.387 -0.341,3.584 -0.6,2.949 -3.677,6.054 -6.927,5.863 a 41.118,41.118 0 0 0 -6.938,0.659 23.054,23.054 0 0 0 -5.406,1.093 4.589,4.589 0 0 1 -0.983,0.618 12.273,12.273 0 0 0 -2.3,1.723 14.516,14.516 0 0 0 -1.74,2.284 c -0.387,0.665 -0.665,1.081 -0.792,1.029 -0.127,-0.052 -0.075,-0.543 0.156,-1.3 a 7.736,7.736 0 0 1 1.611,-2.621 1.173,1.173 0 0 1 -0.59,-0.855 9.183,9.183 0 0 1 -0.7,1.642 7.016,7.016 0 0 1 -1.139,1.526 c -0.8,0.781 -1.382,1.018 -1.463,0.937 -0.11,-0.1 0.376,-0.6 0.937,-1.382 a 10.681,10.681 0 0 0 1.578,-3.486 c 0.393,-1.481 0.659,-2.9 0.977,-3.9 a 8.3,8.3 0 0 1 0.445,-1.162 3.6,3.6 0 0 1 2.122,-2.261 4.646,4.646 0 0 1 4.053,0.515 c 1.955,1.352 1.879,-0.966 3.169,-1.319 1.254,-0.347 2.636,0.012 3.816,-0.682 a 2.84,2.84 0 0 0 1.6,-1.9 l -1.561,0.624 c -2.22,0.683 -4.238,2.053 -6.516,2.458 a 3.044,3.044 0 0 1 -3.423,-2.568 12.346,12.346 0 0 0 -5.053,2.938 16.853,16.853 0 0 0 -4.874,8.533 v 0.521 c 0.018,1.295 0.087,2.717 0.168,4.232 0.046,0.734 0.087,1.5 0.075,2.232 -0.012,0.37 -0.046,0.745 -0.069,1.11 -0.047,0.347 -0.11,0.67 -0.162,0.994 A 10.126,10.126 0 0 1 64.843,42.953 23.021,23.021 0 0 1 63.5,44.9 c -0.341,0.44 -0.555,0.665 -0.612,0.631 -0.057,-0.034 0.052,-0.33 0.289,-0.833 0.254,-0.491 0.613,-1.2 1.064,-2.076 A 10.824,10.824 0 0 0 65.3,39.473 c 0.041,-0.323 0.1,-0.659 0.128,-0.988 0.011,-0.324 0.028,-0.654 0.04,-0.989 -0.006,-0.7 -0.046,-1.4 -0.093,-2.174 -0.017,-0.3 -0.028,-0.584 -0.046,-0.873 a 18.132,18.132 0 0 1 -3.105,7.36 c -1.532,2 -3.058,4.082 -4.66,6.071 2.221,-1.44 3.863,-2.313 3.972,-2.151 0.157,0.231 -2.526,2.249 -5.885,4.631 -0.168,0.116 -0.336,0.232 -0.5,0.341 -0.1,0.11 -0.2,0.226 -0.3,0.336 a 47.617,47.617 0 0 1 -8.3,6.631 0.48,0.48 0 0 0 -0.058,0.041 16.852,16.852 0 0 1 -1.6,4.255 3.458,3.458 0 0 0 -0.075,0.359 c -0.1,0.543 -0.2,1.121 -0.284,1.734 -0.057,0.59 -0.127,1.214 -0.179,1.868 -0.023,0.329 -0.052,0.653 -0.081,0.977 -0.029,0.324 -0.081,0.653 -0.121,0.977 a 8.015,8.015 0 0 1 -0.174,0.9 c -0.075,0.3 -0.115,0.555 -0.219,0.873 a 18.623,18.623 0 0 1 -1.214,2.827 c -0.388,0.763 -0.648,1.376 -0.845,1.81 -0.161,0.451 -0.283,0.7 -0.352,0.682 -0.069,-0.018 -0.07,-0.289 -0.018,-0.769 a 11.092,11.092 0 0 1 0.584,-2 29.2,29.2 0 0 0 0.983,-2.787 c 0.064,-0.226 0.11,-0.549 0.168,-0.833 a 6.462,6.462 0 0 0 0.144,-0.884 c 0.035,-0.289 0.064,-0.59 0.1,-0.9 0.036,-0.31 0.052,-0.636 0.075,-0.959 0.017,-0.208 0.04,-0.422 0.064,-0.63 a 47.715,47.715 0 0 1 -2.706,5.567 15.659,15.659 0 0 1 -4.007,4.741 c -1.561,1.139 -3.249,1.914 -4.365,3.313 -0.023,0.058 -0.046,0.116 -0.075,0.174 -0.052,0.127 -0.116,0.289 -0.162,0.375 -0.041,0.151 -0.081,0.3 -0.122,0.446 -0.156,0.584 -0.341,1.15 -0.456,1.688 -0.115,0.538 -0.226,1.035 -0.33,1.509 -0.035,0.185 -0.064,0.364 -0.092,0.543 a 9.121,9.121 0 0 0 3.11,7.042 41.345,41.345 0 0 1 3.984,3.146 c 2.937,3.145 0.15,4.55 0.185,8.2 0,0.023 -0.012,0.041 -0.012,0.064 0.324,0.352 0.642,0.717 0.943,1.1 a 8.591,8.591 0 0 1 0.6,0.908 2.284,2.284 0 0 1 0.364,-0.22 2.657,2.657 0 0 1 0.549,-0.168 2.949,2.949 0 0 1 -1.4,-3.035 4.768,4.768 0 0 1 3.718,-3.238 1.771,1.771 0 0 1 1.648,0.434 25.2,25.2 0 0 1 2.59,1.8 6.279,6.279 0 0 1 1.6,3.845 c 0.057,0.22 0.115,0.451 0.179,0.676 0.034,0.145 0.075,0.3 0.11,0.446 0.023,-0.035 0.04,-0.07 0.057,-0.1 0.631,-0.936 1.81,-1.775 2.857,-1.428 1.2,-1.289 2.833,-1.815 4.261,-2.9 2.74,-2.07 5.434,-4.233 7.186,-7.245 a 89.173,89.173 0 0 0 6.262,-14.587 c -2.238,2.677 -5.3,4.6 -8.389,6.446 -4.14,2.481 -9,5.175 -13.963,5.036 a 0.59,0.59 0 0 1 -0.191,0.047 2.149,2.149 0 0 1 -0.694,-0.035 2.11,2.11 0 0 1 -0.341,-0.11 L 45.96,89.637 c -0.347,2.787 -1.5,4.776 -4.585,5.088 a 6.241,6.241 0 0 1 0.451,0.815 c 0.225,0.567 0.266,0.942 0.156,1.006 -0.127,0.069 -0.393,-0.22 -0.763,-0.671 -0.364,-0.427 -0.873,-1.017 -1.469,-1.653 l -0.254,-0.255 a 12.476,12.476 0 0 1 -3.99,-4.654 9.233,9.233 0 0 1 -0.907,-1.474 7.288,7.288 0 0 1 -0.44,-0.931 c -0.063,-0.162 -0.133,-0.324 -0.2,-0.491 l -0.11,-0.278 -0.081,-0.283 a 8.316,8.316 0 0 1 -0.312,-2.157 c -0.023,-0.659 0.006,-1.231 0.029,-1.711 0.046,-0.943 0.063,-1.567 0.2,-1.579 0.137,-0.012 0.353,0.55 0.486,1.544 0.115,0.74 0.138,1.694 0.318,2.689 a 5.9,5.9 0 0 1 1.8,-2.192 c 0.584,-0.456 1.618,-1.6 2.509,-1.5 a 3.485,3.485 0 0 1 -0.347,-1.48 6.279,6.279 0 0 1 0.532,-2.475 c 0.543,-1.3 1.046,-1.989 1.156,-1.937 0.133,0.052 -0.15,0.868 -0.5,2.151 a 6.7,6.7 0 0 0 -0.283,2.22 2.82,2.82 0 0 0 1.185,2.134 c 0.781,0.572 1.671,1.1 2.4,1.659 a 8.312,8.312 0 0 1 1.387,1.284 4.453,4.453 0 0 1 1.538,2.272 c 0.705,-0.474 1.665,-0.919 0.908,-1.885 -0.665,-0.844 -0.122,-1.85 0.439,-2.573 1.775,-2.272 3.151,-5.036 5.157,-7.094 0.278,-0.283 0.567,-0.561 0.856,-0.827 -0.445,0.2 -0.879,0.4 -1.26,0.584 a 7.3,7.3 0 0 0 -0.781,0.422 l -0.191,0.11 -0.052,0.023 v 0.006 0 l -0.024,0.017 -0.08,0.058 c -0.11,0.075 -0.22,0.156 -0.324,0.231 a 15.132,15.132 0 0 0 -2.076,2.018 c -0.283,0.312 -0.561,0.6 -0.8,0.839 -0.254,0.242 -0.474,0.451 -0.659,0.6 -0.387,0.289 -0.618,0.422 -0.665,0.376 -0.047,-0.046 0.1,-0.278 0.4,-0.654 0.283,-0.375 0.682,-0.907 1.191,-1.6 a 12.456,12.456 0 0 1 2.053,-2.29 l 0.364,-0.277 0.092,-0.07 0.024,-0.017 0.034,-0.029 0.052,-0.023 0.185,-0.116 a 8.709,8.709 0 0 1 0.792,-0.462 c 0.584,-0.3 1.168,-0.549 1.735,-0.827 0.272,-0.145 0.572,-0.272 0.809,-0.422 0.266,-0.168 0.532,-0.33 0.8,-0.491 l 0.769,-0.463 c 0.255,-0.15 0.463,-0.335 0.688,-0.491 0.434,-0.33 0.867,-0.613 1.249,-0.926 0.382,-0.313 0.734,-0.607 1.064,-0.878 A 0.491,0.491 0 0 1 58.673,69.6 c 0.219,-0.237 0.439,-0.474 0.647,-0.728 0.659,-0.786 1.336,-1.567 2.018,-2.342 a 33.894,33.894 0 0 1 -4.221,2.093 c -1.5,0.63 -2.451,1.024 -2.515,0.891 -0.057,-0.11 0.764,-0.706 2.209,-1.5 a 49.543,49.543 0 0 0 5.406,-3.237 16.247,16.247 0 0 0 2.463,-2.348 c 0.358,-0.4 0.7,-0.786 1.017,-1.144 0.317,-0.358 0.636,-0.688 0.874,-1.006 0.144,-0.18 0.277,-0.347 0.41,-0.5 0.035,-0.053 0.075,-0.1 0.11,-0.151 1.717,-2.428 3.134,-4.845 5.325,-6.9 2.422,-2.284 4.735,-4.77 7.331,-6.857 2.336,-1.874 4.909,-2.937 7.5,-4.325 0.254,-0.37 0.514,-0.74 0.763,-1.116 3.244,-4.787 6.319,-9.759 9.829,-14.379 0.52,-1.931 1.312,-5.446 0.688,-5.643 a 1.162,1.162 0 0 1 -0.63,-1.139 c 0,-2.151 2.312,-4.614 3.943,-5.718 1.879,-1.266 3.417,-2.527 5.6,-1.4 a 0.951,0.951 0 0 1 0.491,0.462 6.972,6.972 0 0 0 1.405,-1.006 c 0.6,-0.63 1.122,-1.254 1.63,-1.746 a 6.405,6.405 0 0 1 1.33,-1.017 c 0.364,-0.174 0.578,-0.231 0.607,-0.174 0.029,0.057 -0.11,0.232 -0.381,0.48 a 14.585,14.585 0 0 0 -1.041,1.18 c -0.335,0.416 -0.711,0.936 -1.162,1.491 a 16.709,16.709 0 0 0 2.191,-1.4 6.677,6.677 0 0 0 1.133,-1.741 z M 109.5,5.911 c -1.833,-0.058 -3.62,-0.081 -5.007,1.329 -0.949,0.96 -1.775,2.053 -2.787,2.949 a 15.74,15.74 0 0 1 -1.9,1.434 35.453,35.453 0 0 0 5.747,-2.648 21.752,21.752 0 0 0 3.947,-3.064 z m -0.076,7.522 a 6.34,6.34 0 0 1 -1.728,0.439 c -0.075,0.041 -0.145,0.081 -0.214,0.121 -0.879,0.515 -1.712,1.047 -2.44,1.544 a 19.465,19.465 0 0 0 -1.844,1.44 c -0.978,0.856 -1.5,1.572 -1.619,1.48 -0.093,-0.064 0.185,-0.879 1.133,-1.966 a 13.281,13.281 0 0 1 1.8,-1.682 24.657,24.657 0 0 1 2.457,-1.642 c -1.283,-3.562 -10.129,5.805 -7.73,6.556 a 0.439,0.439 0 0 1 0.318,0.422 c -0.139,1.451 -0.237,2.891 -0.468,4.308 1.064,-1.33 2.162,-2.637 3.33,-3.886 2.281,-2.44 4.592,-4.827 7.003,-7.134 z m -12.877,2.544 a 5.237,5.237 0 0 0 1.075,-3.151 33.078,33.078 0 0 1 -4.406,1.642 c -3.787,1.162 -7.192,2.9 -11.153,3.457 a 43.752,43.752 0 0 0 -5.232,0.919 c -0.335,3.943 4.689,1.162 5.522,0.706 a 8.8,8.8 0 0 1 1.179,-0.59 L 82.983,19 c -1.139,0.1 -1.856,0.127 -1.885,-0.006 -0.029,-0.133 0.642,-0.393 1.758,-0.671 0.56,-0.121 1.26,-0.237 1.988,-0.37 0.37,-0.063 0.752,-0.127 1.151,-0.2 0.387,-0.093 0.786,-0.191 1.191,-0.29 l 0.306,-0.069 0.076,-0.017 v 0 a 0.1,0.1 0 0 1 0.024,-0.006 l 0.017,-0.006 0.144,-0.058 c 0.2,-0.081 0.394,-0.156 0.584,-0.225 l 0.567,-0.214 q 0.259,-0.122 0.5,-0.243 c 0.665,-0.324 1.272,-0.613 1.775,-0.856 1.058,-0.474 1.769,-0.659 1.815,-0.537 0.046,0.122 -0.531,0.526 -1.48,1.139 -0.474,0.318 -1.04,0.682 -1.74,1.075 -0.173,0.093 -0.353,0.2 -0.532,0.289 -0.173,0.075 -0.358,0.151 -0.538,0.226 a 2.982,2.982 0 0 1 -1.075,2.434 11.093,11.093 0 0 0 1.307,-0.578 9.749,9.749 0 0 0 2.416,-1.775 c 1.22,-1.243 1.787,-2.226 1.932,-2.14 a 5.564,5.564 0 0 1 -1.417,2.6 8.96,8.96 0 0 1 -2.515,2.111 C 89.08,20.78 88.814,20.89 88.537,21.04 a 8.927,8.927 0 0 1 -0.931,0.382 c -0.156,0.058 -0.318,0.127 -0.48,0.179 l -0.5,0.122 a 9.2,9.2 0 0 1 -1.018,0.219 c -0.676,0.116 -1.335,0.226 -1.971,0.33 a 3.57,3.57 0 0 0 -1.492,0.671 c -0.879,0.653 -1.572,1.509 -2.324,2.075 a 3.8,3.8 0 0 1 -2.07,0.885 1.792,1.792 0 0 1 -0.595,-0.035 c -0.133,-0.023 -0.2,-0.058 -0.2,-0.087 -0.017,-0.185 1.2,-0.063 2.417,-1.283 0.2,-0.185 0.405,-0.4 0.613,-0.636 -1.1,-0.139 -2.186,-1.376 -3.481,-1.307 -3.145,0.162 -3.839,4.313 -3.567,6.742 0.15,1.353 2.966,-0.833 3.44,-1.087 a 8.293,8.293 0 0 1 2.937,-0.706 c 2.648,-0.318 5.672,-1.324 8.337,-1.1 a 6.864,6.864 0 0 0 5.071,-1.243 c 2.3,-1.741 2.5,-3.7 2.683,-6.268 a 16.623,16.623 0 0 1 -3.863,4.111 4.631,4.631 0 0 1 -1.636,0.763 c -0.428,0.093 -0.647,0.041 -0.665,-0.011 -0.029,-0.075 0.208,-0.162 0.55,-0.347 a 7.511,7.511 0 0 0 1.329,-0.948 24.547,24.547 0 0 0 3.562,-4.233 19.58,19.58 0 0 1 1.864,-2.251 z m -10.361,27.1 a 29.761,29.761 0 0 0 -7.2,4.568 c -2.215,2.081 -4.516,4.157 -6.62,6.348 -2.272,2.359 -3.77,5.244 -5.822,7.776 -1.926,2.371 -4.013,4.6 -5.961,6.95 -2.093,2.521 -4.707,4.169 -6.961,6.481 -1.8,1.856 -2.758,4.2 -4.429,6.112 -0.931,1.075 -2.429,2.283 -1.18,3.729 a 1.16,1.16 0 0 1 0.284,1.052 9.474,9.474 0 0 1 1.092,-0.335 c 0.683,-0.191 1.3,-0.33 1.983,-0.555 0.174,-0.07 0.347,-0.133 0.521,-0.2 l 0.26,-0.1 0.133,-0.046 0.052,-0.023 0.012,-0.006 0.028,-0.012 c 0.33,-0.173 0.66,-0.352 0.995,-0.526 a 43.68,43.68 0 0 0 6.348,-4.619 c 1.555,-1.313 2.544,-2.105 2.642,-2 a 10.809,10.809 0 0 1 -2.179,2.509 30.509,30.509 0 0 1 -6.337,4.961 l -1.046,0.549 -0.035,0.018 -0.018,0.005 -0.052,0.024 -0.063,0.023 -0.133,0.052 -0.266,0.092 -0.52,0.191 c -0.706,0.225 -1.481,0.387 -2.105,0.538 a 18.468,18.468 0 0 0 -1.781,0.5 c -0.092,0.029 -0.266,0.116 -0.376,0.168 -0.11,0.052 -0.208,0.109 -0.312,0.185 a 2.6,2.6 0 0 0 -0.532,0.462 1.233,1.233 0 0 0 -0.387,0.862 c 5.579,0.855 11.2,-2.533 15.767,-5.337 3.717,-2.284 7.313,-4.683 9.181,-8.684 -0.046,0.052 -0.093,0.1 -0.133,0.15 a 7.7,7.7 0 0 1 -0.642,0.671 33.981,33.981 0 0 1 -5.036,3.77 c -1.312,0.861 -2.139,1.445 -2.226,1.329 -0.075,-0.1 0.567,-0.844 1.816,-1.879 1.231,-1.04 3.058,-2.283 4.764,-3.914 0.225,-0.2 0.41,-0.422 0.607,-0.63 0.197,-0.208 0.405,-0.428 0.549,-0.613 0.353,-0.451 0.694,-0.89 1.018,-1.307 0.139,-0.219 0.272,-0.439 0.405,-0.647 1.78,-5.14 3.446,-10.367 5.689,-15.3 2.17,-4.798 5.211,-9.048 8.206,-13.338 z m -34.025,67.315 c 0.075,-2.209 -0.613,-4.319 -0.741,-6.511 a 0.318,0.318 0 0 1 0,-0.069 c -2.266,0.572 -1.509,2.434 -1.081,3.781 a 8.02,8.02 0 0 1 0.347,1.527 c 0.116,0.931 -0.058,1.457 -0.179,1.457 -0.145,0 -0.226,-0.555 -0.491,-1.307 -0.128,-0.4 -0.313,-0.856 -0.521,-1.37 -0.063,-0.145 -0.133,-0.307 -0.2,-0.457 a 0.292,0.292 0 0 0 -0.006,0.075 c 0.405,1.769 0.728,3.515 1,5.267 0.2,0.723 0.37,1.452 0.5,2.18 a 10.8,10.8 0 0 0 1.372,-4.573 z m -2.5,11.112 a 5.443,5.443 0 0 0 0.081,-3.012 c -0.2,0.387 -0.393,0.728 -0.526,1.023 -0.081,0.174 -0.156,0.33 -0.2,0.463 a 2.152,2.152 0 0 0 -0.139,0.37 c -0.064,0.225 -0.127,0.352 -0.2,0.347 -0.073,-0.005 -0.127,-0.128 -0.179,-0.359 a 2.612,2.612 0 0 1 0.064,-1.046 8.7,8.7 0 0 1 0.479,-1.394 c 0.105,-0.248 0.2,-0.5 0.3,-0.757 0.041,-0.122 0.075,-0.243 0.116,-0.37 0.005,-0.012 0.005,-0.023 0.011,-0.035 -0.266,-0.532 -0.613,-0.931 -1.064,-0.913 a 3.081,3.081 0 0 1 -1.37,-0.162 c -0.856,-0.208 -1.792,-1.307 -2.434,-1.74 -0.289,-0.2 -0.549,-0.4 -0.8,-0.608 0.446,0.9 0.908,1.793 1.3,2.781 0.81,2.012 0.827,4.129 1.833,6.065 0.949,0.162 2.25,0.411 2.724,-0.657 z m 0.093,-6.481 c -0.052,-0.44 -0.11,-0.885 -0.168,-1.324 -0.781,-3.174 -2.267,-7.43 -3.9,-6.3 -0.017,0 -0.034,0 -0.046,0.017 0.4,1.162 0.572,2.185 0.781,2.914 0.185,0.734 0.416,1.237 0.283,1.307 -0.1,0.057 -0.515,-0.255 -0.925,-1.059 a 28.342,28.342 0 0 1 -1.116,-3.006 c -0.046,-0.127 -0.093,-0.254 -0.145,-0.382 -0.069,-0.133 -0.133,-0.266 -0.2,-0.4 a 6.888,6.888 0 0 0 -0.4,-0.67 6.245,6.245 0 0 0 -0.41,-0.555 c -0.954,-0.521 -1.215,0.7 -1.261,1.821 0,0.127 0.006,0.254 0.006,0.387 0,0.1 -0.006,0.208 -0.006,0.318 a 7.617,7.617 0 0 0 0.058,0.839 c 0.486,2.335 1.694,3.237 3.434,4.723 0.948,0.81 2.151,0.908 3.215,1.29 0.092,0.034 0.439,0.11 0.543,0.237 a 2.644,2.644 0 0 1 0.226,0.3 c 0.009,-0.157 0.015,-0.307 0.027,-0.457 z m -1.359,-7.129 c 0,-0.15 0.011,-0.306 0.023,-0.457 -0.139,-0.561 -0.283,-1.116 -0.445,-1.671 -0.428,-1.462 -2.411,-4.833 -4.753,-2.064 a 5.054,5.054 0 0 0 -0.387,0.538 3.564,3.564 0 0 1 0.353,0.144 2.466,2.466 0 0 1 1.312,0.839 c 0.561,0.59 0.7,1.2 1.376,1.093 a 1.858,1.858 0 0 1 0.989,0.057 3.18,3.18 0 0 1 1.528,1.521 z m -0.133,-3.648 a 18.135,18.135 0 0 0 -0.353,-2 c -0.422,-1.636 -1.324,-2.174 -2.619,-3.041 -0.7,-0.468 -1.278,-1.295 -2.249,-0.838 -0.405,0.191 -0.844,0.352 -1.231,0.578 -2.244,1.255 -1.666,3.654 0.479,4.539 a 2.775,2.775 0 0 1 2.487,-1.446 3.853,3.853 0 0 1 3.482,2.208 z m -2.816,-45.71 a 1.377,1.377 0 0 0 0.041,-0.145 53.394,53.394 0 0 0 -8.742,6.747 c -2.6,2.741 -3.423,6.534 -5.84,9.367 -0.156,0.19 -0.318,0.364 -0.485,0.532 -0.191,0.393 -0.388,0.8 -0.6,1.22 -0.688,1.312 -1.162,2.543 -1.769,3.434 a 4.361,4.361 0 0 1 -0.752,0.913 c -0.2,0.2 -0.341,0.284 -0.4,0.249 -0.059,-0.035 -0.024,-0.2 0.086,-0.463 0.087,-0.26 0.324,-0.612 0.474,-1.058 0.307,-0.676 0.648,-1.717 1.145,-2.809 -0.711,0.5 -1.451,0.965 -2.2,1.509 a 23.739,23.739 0 0 0 -4.712,5.116 c -1.52,1.978 -2.7,3.267 -5.342,3.1 a 1.491,1.491 0 0 1 -0.185,-0.029 c -0.168,0.174 -0.33,0.359 -0.492,0.555 0.035,1.215 1.342,2.151 2.244,1 a 4.267,4.267 0 0 1 0.844,-0.948 2.486,2.486 0 0 1 2.058,-0.544 3.516,3.516 0 0 1 1.681,1.255 c -0.04,-0.3 -0.075,-0.6 -0.109,-0.873 -0.076,-0.59 -0.1,-1.168 -0.128,-1.625 0.018,-0.919 0.122,-1.48 0.249,-1.492 0.127,-0.012 0.278,0.561 0.439,1.446 0.11,0.439 0.2,0.931 0.324,1.532 0.058,0.295 0.116,0.6 0.179,0.925 0.041,0.335 0.087,0.676 0.133,1.029 l 0.029,0.26 0.006,0.064 0.006,0.081 0.006,0.127 c 0,0.168 0,0.335 0.011,0.5 v 0.942 c 0,0.544 -0.006,1.03 0.029,1.446 0.312,0.67 0.919,0.988 2.041,1.416 a 4.631,4.631 0 0 1 1.272,0.764 2.318,2.318 0 0 1 1.151,-2.6 6.724,6.724 0 0 1 -2.151,-6.314 c 0.433,-2.371 1.862,-4.036 4.377,-3.914 a 7.886,7.886 0 0 1 1.075,-2.718 4.891,4.891 0 0 1 0.382,-0.8 c 0.173,-0.284 0.335,-0.584 0.5,-0.85 0.165,-0.266 0.346,-0.515 0.514,-0.763 0.168,-0.248 0.33,-0.509 0.486,-0.752 l 0.121,-0.185 0.1,-0.162 c 0.075,-0.127 0.151,-0.249 0.226,-0.37 0.3,-0.48 0.578,-0.942 0.884,-1.347 a 11.439,11.439 0 0 1 0.862,-1.116 c 0.3,-0.324 0.561,-0.613 0.792,-0.873 0.254,-0.226 0.486,-0.4 0.671,-0.543 0.381,-0.29 0.612,-0.428 0.659,-0.382 0.047,0.046 -0.1,0.277 -0.393,0.653 -0.151,0.179 -0.336,0.405 -0.55,0.665 -0.191,0.266 -0.4,0.573 -0.636,0.908 -0.248,0.318 -0.468,0.728 -0.728,1.133 -0.26,0.405 -0.521,0.873 -0.786,1.353 -0.064,0.121 -0.133,0.243 -0.2,0.364 l -0.115,0.2 -0.116,0.19 c -0.1,0.162 -0.2,0.324 -0.3,0.492 A 19.049,19.049 0 0 0 37.484,73.7 c 2.208,-2.359 3.44,-5.181 4.781,-8.077 0.48,-1.035 1.058,-2.116 1.613,-3.226 0.018,-0.087 0.035,-0.18 0.052,-0.272 a 11.113,11.113 0 0 1 1.1,-2.891 c 0.146,-0.253 0.285,-0.484 0.412,-0.698 z m -0.231,30.695 a 0.389,0.389 0 0 1 -0.052,-0.191 5.982,5.982 0 0 1 0,-1.284 c -0.434,-3 -3.273,-3.168 -5.175,-4.9 -1.457,-1.324 -2.416,-0.578 -3.625,0.706 -1.387,1.474 -1.266,3.064 -0.358,4.747 a 17.771,17.771 0 0 0 2.5,3.706 9.208,9.208 0 0 1 1.937,1.532 6.218,6.218 0 0 0 0.6,0.283 0.415,0.415 0 0 1 0.1,0.064 c 2.502,-0.223 3.89,-2.328 4.069,-4.663 z m -3.833,16.824 a 6.784,6.784 0 0 1 0.445,-1.682 4.783,4.783 0 0 0 -1,0.168 1.319,1.319 0 0 0 -0.469,0.289 c 0.174,0.358 0.324,0.734 0.463,1.11 a 5.628,5.628 0 0 1 0.491,0.7 c 0.019,-0.203 0.043,-0.4 0.066,-0.585 z m -2.151,-1.538 a 7.466,7.466 0 0 0 -1.012,-1.445 c -0.734,-0.8 -1.59,-1.515 -2.266,-2.359 -4.146,0.682 -8.054,-0.063 -11.228,-3.035 -1.718,-1.608 -3.417,-1.9 -5.308,-2.33 a 25.821,25.821 0 0 0 3.008,3.552 17.379,17.379 0 0 0 6.262,3.868 c 2.261,0.648 4.273,0.2 6.533,0.058 a 0.777,0.777 0 0 1 0.532,0.023 18.208,18.208 0 0 1 3.475,1.668 z m -1.619,-3.324 c 0.376,-2.417 2.347,-4.776 0.006,-6.822 -1.469,-1.284 -3.267,-2.284 -4.6,-3.718 a 9.734,9.734 0 0 1 -1.284,-1.717 c 0.058,0.179 0.11,0.364 0.179,0.543 0.746,2.035 2.787,3.978 3.128,6.106 0.307,1.942 0.549,3.584 2.047,5.076 0.167,0.179 0.347,0.353 0.52,0.532 z m -2.5,-2.006 c -0.561,-1.59 -0.48,-3.313 -1.463,-4.753 A 17.961,17.961 0 0 1 30.2,82.35 c 0.006,-0.075 0.017,-0.15 0.029,-0.225 -4.221,-0.11 -4.007,4.718 -2.319,7.6 a 12.261,12.261 0 0 0 1.058,1.058 14.947,14.947 0 0 1 2.145,2.151 c 0.486,0.653 0.619,1.156 0.509,1.22 -0.127,0.069 -0.451,-0.272 -1.017,-0.752 -0.4,-0.358 -0.96,-0.78 -1.579,-1.289 -3.457,0.648 0.619,4.521 1.475,5.192 a 9.152,9.152 0 0 0 3.341,1.792 c 0.413,0.02 0.829,0.043 1.258,0.09 z m -0.856,0.873 c -0.2,-0.035 -0.393,-0.075 -0.584,-0.127 a 5.87,5.87 0 0 1 -3.209,-0.81 13.136,13.136 0 0 1 -2.677,-2.949 9.361,9.361 0 0 0 -4.093,-2.653 1.839,1.839 0 0 1 -1.053,-1.3 25.221,25.221 0 0 0 -0.219,-2.672 c -0.428,-1.584 -2.8,-2.543 -3.891,-1.167 a 2.819,2.819 0 0 1 -2.082,1.4 c -1.1,0 -1.549,-0.746 -1.682,-1.637 a 6.013,6.013 0 0 0 -0.781,3.209 c 1.451,0.9 3.14,1.532 4.354,2.758 a 0.308,0.308 0 0 1 0.035,0.041 10.94,10.94 0 0 0 1.694,0.37 8.287,8.287 0 0 1 4,1.393 c 1.4,1.012 2.491,2.347 4.1,3.088 a 11.619,11.619 0 0 0 6.081,1.056 z"
         id="path685" /><path
         d="m 97.339,21.539 c 0.11,0.046 -0.029,0.745 -0.538,1.751 a 24.7,24.7 0 0 1 -2.428,3.574 c -0.249,0.335 -0.492,0.664 -0.729,0.982 -0.214,0.307 -0.422,0.607 -0.618,0.9 -0.3,0.5 -0.567,0.959 -0.81,1.364 -2.052,4.279 -4.423,9.048 -9.2,10.424 a 16.75,16.75 0 0 1 -2.336,0.48 c -0.15,0.064 -0.307,0.128 -0.474,0.2 -0.167,0.072 -0.364,0.121 -0.567,0.173 a 5.332,5.332 0 0 1 -0.659,0.1 c -0.1,0.005 -0.2,0.005 -0.306,0.011 l -0.076,0.006 h -0.04 l -0.093,-0.006 -0.023,-0.006 -0.156,-0.023 c -0.855,-0.115 -1.752,-0.26 -2.769,-0.428 a 27.823,27.823 0 0 1 -2.723,-0.6 15.505,15.505 0 0 1 -2.2,-0.7 3.974,3.974 0 0 1 -1.365,-0.867 c -0.289,-0.313 -0.306,-0.515 -0.266,-0.555 0.058,-0.053 0.226,0.115 0.5,0.26 a 6.585,6.585 0 0 0 1.353,0.514 c 0.561,0.156 1.238,0.289 2,0.44 a 4.626,4.626 0 0 1 -0.48,-0.417 c -3.088,-2.971 2.879,-7.117 5.03,-8.106 a 21.068,21.068 0 0 1 7.2,-1.734 C 87.03,29.1 90.9,29.6 92.58,27.39 a 0.433,0.433 0 0 1 0.341,-0.174 c 0.209,-0.306 0.428,-0.613 0.671,-0.931 1.029,-1.347 1.989,-2.48 2.619,-3.359 0.63,-0.879 0.989,-1.445 1.128,-1.387 z m -5.614,7.6 a 12.382,12.382 0 0 1 -5.134,0.907 c -4.215,0.11 -10.778,0.978 -13.212,5.019 -3.654,6.065 7.748,5.683 10.708,4.111 3.851,-2.056 5.782,-6.195 7.638,-10.04 z"
         id="path687" /><path
         d="m 72.859,46.163 c 0.081,0.283 -2.868,1.2 -6.3,2.723 a 39.091,39.091 0 0 0 -4.2,2.249 c -1.04,0.671 -1.694,1.116 -1.786,1 -0.075,-0.092 0.405,-0.711 1.359,-1.538 A 19.293,19.293 0 0 1 66.158,48 c 3.55,-1.577 6.649,-2.074 6.701,-1.837 z"
         id="path689" /><path
         d="m 66.285,83.674 a 0.36,0.36 0 0 1 0.312,0.4 7.652,7.652 0 0 1 -2.769,5.077 c -1.821,1.532 -3.527,1.717 -5.857,1.618 A 0.438,0.438 0 0 1 57.555,90.22 c 0.925,-3.7 5.169,-5.325 8.349,-6.614 a 0.34,0.34 0 0 1 0.381,0.068 z m -3.07,4.869 a 7.528,7.528 0 0 0 2.434,-3.9 c -2.665,1.069 -6.042,2.474 -7.088,5.278 a 6.062,6.062 0 0 0 4.654,-1.378 z"
         id="path691" /><path
         d="m 64.383,89.67 c 0.15,0.22 -1.48,1.619 -3.648,3.128 -0.792,0.532 -1.544,1 -2.186,1.376 a 42.539,42.539 0 0 0 -4.018,2.995 c -1.428,1.249 -2.214,2.937 -3.481,4.319 A 0.429,0.429 0 0 1 50.374,101.401 8.288,8.288 0 0 1 49.223,99 c -0.08,-0.127 -0.161,-0.266 -0.242,-0.405 a 6.976,6.976 0 0 1 -0.457,-0.936 c -0.052,-0.18 -0.11,-0.37 -0.168,-0.555 -0.04,-0.162 -0.087,-0.324 -0.133,-0.492 -0.092,-0.341 -0.173,-0.694 -0.26,-1.012 -0.11,-0.3 -0.208,-0.595 -0.306,-0.873 -0.191,-0.561 -0.44,-1.058 -0.6,-1.5 -0.387,-0.85 -0.572,-1.417 -0.457,-1.486 0.115,-0.069 0.515,0.37 1.064,1.156 a 12.175,12.175 0 0 1 0.821,1.492 c 0.127,0.306 0.255,0.624 0.393,0.954 0.11,0.329 0.191,0.665 0.284,1.018 a 0.022,0.022 0 0 1 0.005,0.017 4.324,4.324 0 0 1 1.319,-2.018 8.928,8.928 0 0 1 4.22,-2.151 c 1.868,-0.364 3.834,0.018 5.655,-0.4 0.034,-0.006 0.063,0 0.1,-0.006 2.049,-1.403 3.772,-2.347 3.922,-2.133 z m -5.446,3.186 c -1.764,0.087 -3.539,-0.133 -5.291,0.561 -1.786,0.711 -4.336,2.318 -3.648,4.671 a 12.676,12.676 0 0 0 0.827,2.348 c 1.457,-1.694 2.44,-3.394 4.3,-4.851 1.239,-0.96 2.534,-1.827 3.812,-2.729 z"
         id="path693" /><path
         d="m 59.948,52.76 c 0.087,0.092 -0.439,0.722 -1.433,1.572 -0.5,0.417 -1.105,0.9 -1.775,1.4 -0.336,0.248 -0.683,0.526 -1.047,0.815 -0.179,0.144 -0.37,0.289 -0.555,0.439 l -0.144,0.11 c -0.006,0.012 -0.076,0.075 -0.11,0.11 l -0.26,0.243 c -0.353,0.329 -0.694,0.647 -1.024,0.959 -0.312,0.33 -0.613,0.654 -0.9,0.954 -0.59,0.6 -1.058,1.2 -1.5,1.666 -0.838,0.972 -1.4,1.549 -1.514,1.472 -0.114,-0.077 0.26,-0.8 0.966,-1.885 0.381,-0.526 0.8,-1.185 1.37,-1.838 0.283,-0.33 0.584,-0.671 0.89,-1.029 0.33,-0.342 0.694,-0.671 1.058,-1.018 l 0.278,-0.26 0.15,-0.139 0.145,-0.11 c 0.19,-0.144 0.381,-0.283 0.566,-0.422 q 0.546,-0.425 1.093,-0.78 c 0.723,-0.486 1.364,-0.9 1.9,-1.238 1.078,-0.697 1.748,-1.125 1.846,-1.021 z"
         id="path695" /></g></g><metadata
     id="metadata420"><rdf:RDF><cc:Work
         rdf:about=""><dc:title>Meat</dc:title></cc:Work></rdf:RDF></metadata></svg>
