<?xml version="1.0" encoding="UTF-8" standalone="no"?>
<svg
   version="1.1"
   viewBox="-5 -10 100 100"
   id="svg224"
   sodipodi:docname="money.svg"
   width="100"
   height="100"
   inkscape:version="1.2.2 (b0a8486541, 2022-12-01)"
   xmlns:inkscape="http://www.inkscape.org/namespaces/inkscape"
   xmlns:sodipodi="http://sodipodi.sourceforge.net/DTD/sodipodi-0.dtd"
   xmlns="http://www.w3.org/2000/svg"
   xmlns:svg="http://www.w3.org/2000/svg">
  <defs
     id="defs228" />
  <sodipodi:namedview
     id="namedview226"
     pagecolor="#505050"
     bordercolor="#eeeeee"
     borderopacity="1"
     inkscape:showpageshadow="0"
     inkscape:pageopacity="0"
     inkscape:pagecheckerboard="0"
     inkscape:deskcolor="#505050"
     showgrid="false"
     inkscape:zoom="1.587037"
     inkscape:cx="-95.775965"
     inkscape:cy="-5.3558928"
     inkscape:window-width="1916"
     inkscape:window-height="879"
     inkscape:window-x="0"
     inkscape:window-y="1256"
     inkscape:window-maximized="1"
     inkscape:current-layer="svg224" />
  <g
     id="g218"
     transform="matrix(1.0099932,0,0,1.0099932,-5.5241523,-10.484823)">
    <path
       d="m 39.125,47.016 v 1.2031 c -1.8906,0.51562 -3.2812,2.2344 -3.2812,4.2812 0,2.4531 2,4.4531 4.4531,4.4531 1.1719,0 2.1094,0.95312 2.1094,2.1094 0,1.15628 -0.95312,2.1094 -2.1094,2.1094 h -3.2812 c -0.64062,0 -1.1719,0.53125 -1.1719,1.1719 0,0.64065 0.53125,1.1719 1.1719,1.1719 h 2.1094 v 1.0312 c 0,0.64062 0.53125,1.1719 1.1719,1.1719 0.64065,0 1.1719,-0.53125 1.1719,-1.1719 v -1.2031 c 1.8906,-0.51562 3.2812,-2.2344 3.2812,-4.2812 0,-2.4531 -2,-4.4531 -4.4531,-4.4531 -1.1719,0 -2.1094,-0.95312 -2.1094,-2.1094 0,-1.15628 0.95312,-2.1094 2.1094,-2.1094 h 3.2812 c 0.64062,0 1.1719,-0.53125 1.1719,-1.1719 0,-0.64065 -0.53125,-1.1719 -1.1719,-1.1719 H 41.4688 V 47.016 c 0,-0.64062 -0.53125,-1.1719 -1.1719,-1.1719 -0.64065,0 -1.1719,0.53125 -1.1719,1.1719 z"
       id="path214" />
    <path
       d="m 81.516,68.016 c -0.28125,0 -0.57812,0.03125 -0.85938,0.04687 0.20312,-0.45312 0.3125,-0.95312 0.3125,-1.4844 0,-0.32812 -0.0625,-0.65625 -0.14062,-0.96875 l 13.891,-20.484 c 0.17188,-0.25 0.23438,-0.57812 0.1875,-0.875 -0.0625,-0.3125 -0.23438,-0.57812 -0.5,-0.75 L 38.063,5.28172 c -0.25,-0.17188 -0.5625,-0.23438 -0.875,-0.1875 -0.3125,0.0625 -0.57812,0.23438 -0.75,0.5 l -10.359,15.281 -6.3281,-1.9531 c -0.60938,-0.1875 -1.2656,0.15625 -1.4688,0.78125 l -5.4062,17.641 h -6.625 c -0.64062,0 -1.1719,0.53125 -1.1719,1.1719 v 34.578 c 0,0.64062 0.53125,1.1719 1.1719,1.1719 h 48.594 c -0.46875,0.60938 -0.75,1.3594 -0.75,2.1875 0,0.95312 0.375,1.8125 0.98438,2.4688 -0.60938,0.65625 -0.98438,1.5156 -0.98438,2.4688 0,0.9532 0.375,1.8125 0.98438,2.4688 -0.60938,0.65625 -0.98438,1.5156 -0.98438,2.4688 0,0.9532 0.375,1.8125 0.98438,2.4688 -0.60938,0.65625 -0.98438,1.5156 -0.98438,2.4688 0,2 1.6406,3.625 3.6406,3.625 h 23.781 c 7.4219,0 13.453,-6.0156 13.453,-13.438 0,-7.4224 -6.0312,-13.438 -13.453,-13.438 z m 4.0938,-27.641 6.5156,4.4062 -11.188,16.484 c -0.09375,-0.85938 -0.48438,-1.6406 -1.0781,-2.2188 l 0.375,-1.2031 7.7344,-11.422 c 0.35938,-0.53125 0.21875,-1.2656 -0.3125,-1.625 l -2.8281,-1.9219 z m -7.8906,17.672 c -0.125,-0.01563 -2.2188,-0.03125 -2.2188,-0.03125 v -1.3125 l 4.0312,-13.109 c 0.09375,-0.29688 0.0625,-0.625 -0.09375,-0.89062 -0.14062,-0.28125 -0.39062,-0.48438 -0.6875,-0.57812 l -3.25,-0.98438 v -2.6406 l 7.5156,2.3125 z m 0.90625,8.5312 c 0,0.71875 -0.5625,1.2812 -1.2656,1.2969 h -19.641 c -0.70312,-0.01563 -1.2812,-0.57812 -1.2812,-1.2969 0,-0.71878 0.57812,-1.2812 1.2969,-1.2812 h 19.609 c 0.53125,0 0.98438,0.3125 1.1875,0.78125 0.0625,0.17188 0.09375,0.32812 0.09375,0.5 z m -1.2812,-3.625 h -19.609 c -0.71875,0 -1.2969,-0.59375 -1.2969,-1.2969 0,-0.70315 0.57812,-1.2969 1.2969,-1.2969 h 19.609 c 0.70312,0 1.2812,0.57812 1.2812,1.2969 0,0.71878 -0.57812,1.2969 -1.2812,1.2969 z m -20.609,-7.1406 c 0,-2.0938 1.7031,-3.7969 3.7969,-3.7969 2.0938,0 3.7969,1.7031 3.7969,3.7969 0,0.82812 -0.26562,1.5938 -0.71875,2.2031 h -6.1562 c -0.45312,-0.625 -0.71875,-1.3906 -0.71875,-2.2031 z m 7.9062,-11.266 h 3.6562 v 3.6406 c -1.7969,-0.4375 -3.2188,-1.8438 -3.6562,-3.6406 z m -26.922,-36.672 44.625,30.281 -8.2031,-2.5312 -34.781,-23.594 c -0.25,-0.17188 -0.5625,-0.23438 -0.875,-0.1875 -0.3125,0.0625 -0.57812,0.23438 -0.75,0.5 l -6.7969,10.016 -2.5156,-0.76562 z m 27,24.859 -12.25,-3.7656 c 3.2344,-1.0312 6.8281,-0.57812 9.7188,1.3906 0.98438,0.65625 1.8125,1.4688 2.5312,2.375 z m -22.672,-16.047 c -0.67188,0.60938 -1.4844,1.0312 -2.4062,1.2031 -0.90625,0.17188 -1.8281,0.07813 -2.6719,-0.25 l 2.0469,-3.0156 z m -21.859,4.8281 51.547,15.828 h -8.5781 l -40.188,-12.344 c -0.60938,-0.1875 -1.2656,0.15625 -1.4688,0.78125 l -3.5469,11.562 h -2.6406 z m 33.109,15.828 h -12.859 c 2.7969,-1.9375 6.375,-2.5625 9.7344,-1.5312 1.125,0.34375 2.1562,0.85938 3.125,1.5312 z m -26.406,-8.6875 c -0.45312,0.78125 -1.1094,1.4219 -1.9219,1.8594 -0.82812,0.4375 -1.7344,0.60938 -2.6406,0.54688 l 1.0781,-3.4688 z m -15.781,13.547 c -0.64062,0 -1.1719,0.53125 -1.1719,1.1719 v 24.859 c 0,0.64062 0.53125,1.1719 1.1719,1.1719 h 43.672 c -0.42188,0.59375 -0.6875,1.3281 -0.6875,2.1094 0,0.14062 0.03125,0.26562 0.04687,0.40625 h -46.719 v -32.234 h 65.734 v 18.328 h -2.5156 v -14.641 c 0,-0.64062 -0.53125,-1.1719 -1.1719,-1.1719 z m 40.438,13.594 c 0,6.2188 -5.0469,11.266 -11.25,11.266 -6.2031,0 -11.266,-5.0469 -11.266,-11.266 0,-6.2191 5.0469,-11.234 11.25,-11.25 h 0.03125 c 6.1875,0.01563 11.234,5.0469 11.234,11.25 z m -27.859,0 c 0,2.0938 -1.7031,3.8125 -3.7969,3.8125 -2.0938,0 -3.7969,-1.7188 -3.7969,-3.8125 0,-2.0937 1.7031,-3.7969 3.7969,-3.7969 2.0938,0 3.7969,1.7031 3.7969,3.7969 z m -11.406,-7.6094 v -3.6406 h 3.6562 c -0.4375,1.7969 -1.8594,3.2031 -3.6562,3.6406 z m 3.6562,18.875 h -3.6562 v -3.6562 c 1.8125,0.4375 3.2188,1.8594 3.6562,3.6562 z m 52.203,15.625 h -10.406 c -0.71875,0 -1.2969,-0.57812 -1.2969,-1.2969 0,-0.71878 0.57812,-1.2969 1.2969,-1.2969 h 10.422 c -0.04687,0.45312 -0.07813,0.90625 -0.07813,1.3594 0,0.42188 0.03125,0.82812 0.0625,1.2344 z m -10.406,2.3438 h 10.844 c 0.25,0.90625 0.59375,1.7812 1.0156,2.5938 h -11.859 c -0.71875,0 -1.2969,-0.57812 -1.2969,-1.2969 0,-0.71878 0.57812,-1.2969 1.2969,-1.2969 z m 10.875,-7.2812 h -10.875 c -0.71875,0 -1.2969,-0.57812 -1.2969,-1.2969 0,-0.71878 0.57812,-1.2969 1.2969,-1.2969 h 11.922 c -0.4375,0.8125 -0.78125,1.6875 -1.0469,2.5938 z m -10.875,14.797 c -0.71875,0 -1.2969,-0.57812 -1.2969,-1.2812 0,-0.70308 0.57812,-1.2969 1.2969,-1.2969 h 13.391 c 0.8125,0.98438 1.7656,1.8594 2.8125,2.5781 z m 13.516,-19.734 h -13.516 c -0.71875,0 -1.2969,-0.57812 -1.2969,-1.2969 0,-0.71878 0.57812,-1.2812 1.2812,-1.2969 h 16.438 c -1.0938,0.71875 -2.0781,1.5938 -2.9062,2.5938 z m 10.266,7.4688 c 2.4375,0 4.4219,1.9844 4.4219,4.4219 0,2.0312 -1.375,3.7188 -3.25,4.2344 v 1.1875 c 0,0.64062 -0.51562,1.1719 -1.1719,1.1719 -0.65628,0 -1.1719,-0.53125 -1.1719,-1.1719 v -1 h -2.0625 c -0.65625,0 -1.1719,-0.53125 -1.1719,-1.1719 0,-0.64065 0.51562,-1.1719 1.1719,-1.1719 h 3.2344 c 1.1562,0 2.0781,-0.9375 2.0781,-2.0781 0,-1.1406 -0.92188,-2.0781 -2.0781,-2.0781 -2.4219,0 -4.4062,-1.9844 -4.4062,-4.4062 0,-2.0312 1.375,-3.7344 3.2344,-4.25 v -1.1875 c 0,-0.64062 0.53125,-1.1719 1.1719,-1.1719 0.64065,0 1.1719,0.53125 1.1719,1.1719 v 1.0156 h 2.0781 c 0.65625,0 1.1719,0.51562 1.1719,1.1719 0,0.65628 -0.51562,1.1719 -1.1719,1.1719 h -3.25 c -1.1406,0 -2.0625,0.92188 -2.0625,2.0781 0,1.15622 0.92188,2.0625 2.0625,2.0625 z"
       id="path216" />
  </g>
</svg>
