<?xml version="1.0" encoding="UTF-8" standalone="no"?>
<svg
   data-name="Layer 1"
   viewBox="0 0 100 100"
   x="0px"
   y="0px"
   version="1.1"
   id="svg906"
   sodipodi:docname="personal-brand.svg"
   width="100"
   height="100"
   inkscape:version="1.2.2 (b0a8486541, 2022-12-01)"
   xmlns:inkscape="http://www.inkscape.org/namespaces/inkscape"
   xmlns:sodipodi="http://sodipodi.sourceforge.net/DTD/sodipodi-0.dtd"
   xmlns="http://www.w3.org/2000/svg"
   xmlns:svg="http://www.w3.org/2000/svg">
  <defs
     id="defs910" />
  <sodipodi:namedview
     id="namedview908"
     pagecolor="#505050"
     bordercolor="#eeeeee"
     borderopacity="1"
     inkscape:showpageshadow="0"
     inkscape:pageopacity="0"
     inkscape:pagecheckerboard="0"
     inkscape:deskcolor="#505050"
     showgrid="false"
     inkscape:zoom="1"
     inkscape:cx="-155"
     inkscape:cy="134.5"
     inkscape:window-width="1916"
     inkscape:window-height="879"
     inkscape:window-x="0"
     inkscape:window-y="1256"
     inkscape:window-maximized="1"
     inkscape:current-layer="svg906" />
  <g
     id="g1263"
     transform="matrix(0.47330725,0,0,0.47330725,28.701173,28.701173)"
     style="fill:#000000">
    <path
       d="m 45,-33.886175 c -43.5119535,0 -78.886175,35.3742215 -78.886175,78.886175 0,21.465897 8.593887,40.936666 22.586357,55.17936 L -6.2754604,87.059341 C -2.165629,76.472539 7.1346359,68.748891 18.013731,66.465897 16.519046,64.388838 15.31444,62.18999 14.317983,59.822851 7.8830857,56.875553 3.4809604,50.314437 3.4809604,42.925155 c 0,-3.737821 1.4127545,-7.141275 3.7378207,-9.716562 L 7.0527049,32.87644 C 3.6071782,25.194865 3.2329533,17.431358 6.0983206,10.332155 8.3392416,4.7276387 12.617363,-0.17271513 17.931801,-3.4521657 c 1.286536,-5.6465894 6.310894,-9.6744893 12.165632,-9.6744893 h 25.367579 c 9.466341,0 18.186447,4.7342772 23.95704,12.91186725 6.561115,9.42426845 8.179804,22.00398375 4.236049,32.92515175 l -0.414083,1.080602 c 2.077059,2.533215 3.27945,5.730735 3.27945,9.134189 0,7.389282 -4.399911,13.950398 -10.837023,16.897696 -0.996457,2.367139 -2.201062,4.565987 -3.695748,6.643046 10.876881,2.282994 20.177146,10.006642 24.289192,20.593444 l 5.024361,13.120019 C 115.29672,85.93888 123.8906,66.465897 123.8906,45 c 0,-43.5119535 -35.374218,-78.886175 -78.886171,-78.886175 z"
       id="path876"
       style="fill:#000000;stroke-width:2.21435" />
    <path
       d="m 20.861384,53.173161 c 1.085031,4.344553 3.303808,8.361381 6.523471,11.57883 l 4.446413,4.446412 c 3.113374,3.113375 7.338352,4.864925 11.742691,4.864925 h 2.849867 c 4.40434,0 8.629317,-1.749336 11.742692,-4.864925 l 4.446412,-4.446412 c 3.219663,-3.219663 5.438441,-7.236492 6.523472,-11.57883 5.110717,-0.646589 9.076615,-4.962355 9.076615,-10.248006 0,-3.438883 -2.787865,-6.226749 -6.226748,-6.226749 h -2.07706 v -4.151904 c 0,-6.879981 -5.57573,-12.455711 -12.455711,-12.455711 H 32.542074 c -6.879982,0 -12.455712,5.57573 -12.455712,12.455711 v 4.151904 h -2.074845 c -3.438884,0 -6.226749,2.787866 -6.226749,6.226749 0,5.285651 3.965899,9.601417 9.076616,10.248006 z"
       id="path878"
       style="fill:#000000;stroke-width:2.21435" />
    <path
       d="M 13.177594,25.250223 C 16.144821,17.404785 23.673607,11.784768 32.544288,11.784768 h 24.911424 c 9.030114,0 16.651903,5.832595 19.50177,13.897253 C 79.878208,10.651022 69.97564,-4.8228476 55.471655,-4.8228476 h -25.38308 c -2.015057,0 -3.73782,1.428255 -4.089902,3.4100972 -0.174933,0.97874212 -0.336581,2.12798914 -0.440655,3.4012397 V 1.9663458 C 17.860941,5.0332189 10.225867,13.647036 13.177594,25.248009 Z"
       id="path880"
       style="fill:#000000;stroke-width:2.21435" />
    <path
       d="m 32.710364,79.856064 c 0.810452,6.096102 5.972099,10.81488 12.289636,10.81488 6.317537,0 11.479184,-4.718778 12.289636,-10.81488 -3.345881,1.627547 -7.034986,2.511072 -10.86581,2.511072 h -2.849867 c -3.830823,0 -7.517714,-0.88574 -10.865809,-2.511072 z"
       id="path882"
       style="fill:#000000;stroke-width:2.21435" />
    <path
       d="m 45,-42.189983 c 2.291851,0 4.151904,-1.860053 4.151904,-4.151904 v -4.151904 c 0,-2.291851 -1.860053,-4.151904 -4.151904,-4.151904 -2.291851,0 -4.151904,1.860053 -4.151904,4.151904 v 4.151904 c 0,2.291851 1.860053,4.151904 4.151904,4.151904 z"
       id="path884"
       style="fill:#000000;stroke-width:2.21435" />
    <path
       d="m 45,132.18998 c -2.291851,0 -4.151904,1.86006 -4.151904,4.15191 v 4.1519 c 0,2.29185 1.860053,4.15191 4.151904,4.15191 2.291851,0 4.151904,-1.86006 4.151904,-4.15191 v -4.1519 c 0,-2.29185 -1.860053,-4.15191 -4.151904,-4.15191 z"
       id="path886"
       style="fill:#000000;stroke-width:2.21435" />
    <path
       d="m -46.341887,40.848096 h -4.151904 c -2.291851,0 -4.151904,1.860053 -4.151904,4.151904 0,2.291851 1.860053,4.151904 4.151904,4.151904 h 4.151904 c 2.291851,0 4.151904,-1.860053 4.151904,-4.151904 0,-2.291851 -1.860053,-4.151904 -4.151904,-4.151904 z"
       id="path888"
       style="fill:#000000;stroke-width:2.21435" />
    <path
       d="m 140.49379,40.848096 h -4.1519 c -2.29185,0 -4.15191,1.860053 -4.15191,4.151904 0,2.291851 1.86006,4.151904 4.15191,4.151904 h 4.1519 c 2.29185,0 4.15191,-1.860053 4.15191,-4.151904 0,-2.291851 -1.86006,-4.151904 -4.15191,-4.151904 z"
       id="path890"
       style="fill:#000000;stroke-width:2.21435" />
    <path
       d="m -22.524352,-16.651899 c 1.620904,1.620904 4.249336,1.620904 5.872453,0 1.623118,-1.620903 1.620904,-4.251549 0,-5.872453 l -2.936226,-2.936226 c -1.620904,-1.620904 -4.25155,-1.620904 -5.872453,0 -1.620904,1.620903 -1.620904,4.251549 0,5.872453 z"
       id="path892"
       style="fill:#000000;stroke-width:2.21435" />
    <path
       d="m 112.52435,106.6519 c -1.6209,-1.6209 -4.24933,-1.6209 -5.87245,0 -1.62312,1.6209 -1.6209,4.24933 0,5.87245 l 2.93623,2.93623 c 1.6209,1.6209 4.25154,1.6209 5.87245,0 1.6209,-1.62091 1.6209,-4.24934 0,-5.87245 z"
       id="path894"
       style="fill:#000000;stroke-width:2.21435" />
    <path
       d="m -22.524352,106.6519 -2.936226,2.93623 c -1.620904,1.6209 -1.620904,4.25154 0,5.87245 1.620903,1.6209 4.251549,1.6209 5.872453,0 l 2.936226,-2.93623 c 1.620904,-1.6209 1.620904,-4.24933 0,-5.87245 -1.620903,-1.62312 -4.251549,-1.6209 -5.872453,0 z"
       id="path896"
       style="fill:#000000;stroke-width:2.21435" />
    <path
       d="m 112.52435,-16.651899 2.93623,-2.936226 c 1.6209,-1.620904 1.6209,-4.25155 0,-5.872453 -1.62091,-1.620904 -4.25155,-1.620904 -5.87245,0 l -2.93623,2.936226 c -1.6209,1.620904 -1.6209,4.25155 0,5.872453 1.6209,1.620904 4.25155,1.620904 5.87245,0 z"
       id="path898"
       style="fill:#000000;stroke-width:2.21435" />
    <path
       d="M 65.755091,78.252876 C 65.732948,89.68113 56.432683,98.974752 45,98.974752 33.567317,98.974752 24.264838,89.68113 24.244909,78.252876 14.140835,78.456596 5.1306502,84.720988 1.4924752,94.182901 l -4.9800705,12.951729 c 13.3835241,10.46058 30.1860023,16.75155 48.4898093,16.75155 18.303807,0 35.106286,-6.29097 48.48981,-16.75155 L 88.511954,94.182901 C 84.871564,84.718774 75.861379,78.454381 65.75952,78.252876 Z"
       id="path900"
       style="fill:#000000;stroke-width:2.21435" />
  </g>
</svg>
