<?xml version="1.0" encoding="UTF-8" standalone="no"?>
<svg
   enable-background="new 0 0 98.2 118"
   viewBox="0 0 100.00001 100"
   version="1.1"
   id="svg527"
   sodipodi:docname="svelte.svg"
   width="100"
   height="100"
   inkscape:version="1.2.2 (b0a8486541, 2022-12-01)"
   xmlns:inkscape="http://www.inkscape.org/namespaces/inkscape"
   xmlns:sodipodi="http://sodipodi.sourceforge.net/DTD/sodipodi-0.dtd"
   xmlns="http://www.w3.org/2000/svg"
   xmlns:svg="http://www.w3.org/2000/svg">
  <defs
     id="defs531" />
  <sodipodi:namedview
     id="namedview529"
     pagecolor="#505050"
     bordercolor="#eeeeee"
     borderopacity="1"
     inkscape:showpageshadow="0"
     inkscape:pageopacity="0"
     inkscape:pagecheckerboard="0"
     inkscape:deskcolor="#505050"
     showgrid="false"
     inkscape:zoom="1.9524963"
     inkscape:cx="-51.728651"
     inkscape:cy="31.498139"
     inkscape:window-width="1916"
     inkscape:window-height="879"
     inkscape:window-x="0"
     inkscape:window-y="1256"
     inkscape:window-maximized="1"
     inkscape:current-layer="svg527" />
  <path
     d="M 83.54608,15.968646 C 75.001658,3.6615338 57.991182,0.05562787 45.762462,7.8945545 L 24.205417,21.612672 c -5.879194,3.684295 -9.955436,9.720268 -11.131274,16.540132 -1.01906,5.722416 -0.156779,11.601609 2.586846,16.696909 -1.881342,2.822018 -3.135571,5.957588 -3.684295,9.249934 -1.254228,6.976642 0.391946,14.188457 4.468188,19.910872 8.622817,12.307115 25.554894,15.913013 37.783625,8.152481 L 75.785548,78.444881 c 5.87919,-3.684296 9.955436,-9.720272 11.131275,-16.540128 1.019055,-5.722415 0.156776,-11.601614 -2.586845,-16.696916 1.881343,-2.822013 3.13557,-5.957583 3.684296,-9.249932 1.254229,-7.055032 -0.31356,-14.266844 -4.468194,-19.989259 M 43.645952,85.186349 C 36.669307,86.989312 29.379108,84.245692 25.302866,78.366493 22.79441,74.917361 21.853739,70.60596 22.559242,66.372938 c 0.15678,-0.705501 0.313557,-1.332615 0.470336,-2.038118 l 0.391946,-1.254237 1.09745,0.7839 c 2.586845,1.881342 5.408859,3.292346 8.466039,4.233021 l 0.783892,0.235164 -0.07839,0.783891 c -0.07839,1.097452 0.235168,2.273283 0.862282,3.213958 1.254229,1.802954 3.449128,2.665232 5.565638,2.116506 0.470334,-0.156776 0.94067,-0.313552 1.332617,-0.548716 l 21.478656,-13.71812 c 1.097451,-0.705511 1.802953,-1.724565 2.038126,-2.978794 0.235165,-1.254219 -0.07843,-2.586853 -0.783899,-3.605907 -1.254227,-1.802955 -3.449123,-2.586844 -5.565628,-2.038119 -0.470347,0.156777 -0.940676,0.313553 -1.332625,0.548726 l -8.152481,5.173689 c -1.332618,0.862278 -2.822012,1.4894 -4.389799,1.881341 -6.976642,1.802955 -14.266843,-0.940675 -18.343084,-6.819866 -2.430067,-3.449125 -3.449127,-7.760534 -2.665235,-11.993553 0.705505,-4.076242 3.21396,-7.760536 6.741476,-9.955436 L 51.955207,16.67415 c 1.332625,-0.862282 2.822018,-1.489396 4.389807,-1.959731 6.976642,-1.802954 14.266845,0.940669 18.343091,6.819865 2.508456,3.449126 3.449122,7.760535 2.74362,11.993555 -0.156785,0.705503 -0.313552,1.332617 -0.548726,2.03812 l -0.391941,1.254228 -1.097451,-0.783893 c -2.586853,-1.881341 -5.408862,-3.292348 -8.466044,-4.233019 l -0.78389,-0.235168 0.07843,-0.783892 c 0.07843,-1.09745 -0.235173,-2.273289 -0.862287,-3.213958 -1.254228,-1.802954 -3.449131,-2.586847 -5.565638,-2.038122 -0.470329,0.156779 -0.940667,0.313557 -1.332616,0.548724 l -21.4787,13.796509 c -1.09745,0.705503 -1.802954,1.724563 -2.03812,2.978792 -0.235168,1.254227 0.07839,2.586845 0.783892,3.605904 1.254228,1.802953 3.449127,2.586847 5.565637,2.038122 0.470335,-0.156779 0.940671,-0.313558 1.332617,-0.548725 l 8.230873,-5.252079 c 1.332617,-0.862282 2.822009,-1.489397 4.389798,-1.959732 6.976642,-1.802953 14.266845,0.940671 18.343091,6.819865 2.508447,3.449127 3.449122,7.760537 2.743611,11.993558 -0.705493,4.076236 -3.213957,7.760532 -6.741468,9.955435 l -21.478657,13.71812 c -1.411006,0.862279 -2.900402,1.489392 -4.468187,1.959721"
     id="path525"
     style="stroke-width:0.783891" />
</svg>
