<?xml version="1.0" encoding="UTF-8" standalone="no"?>
<svg
   enable-background="new 0 0 98.2 118"
   viewBox="0 0 200.00001 200"
   version="1.1"
   id="svg527"
   sodipodi:docname="svelte.svg"
   width="200"
   height="200"
   inkscape:version="1.2.2 (b0a8486541, 2022-12-01)"
   xmlns:inkscape="http://www.inkscape.org/namespaces/inkscape"
   xmlns:sodipodi="http://sodipodi.sourceforge.net/DTD/sodipodi-0.dtd"
   xmlns="http://www.w3.org/2000/svg"
   xmlns:svg="http://www.w3.org/2000/svg">
  <defs
     id="defs531" />
  <sodipodi:namedview
     id="namedview529"
     pagecolor="#505050"
     bordercolor="#eeeeee"
     borderopacity="1"
     inkscape:showpageshadow="0"
     inkscape:pageopacity="0"
     inkscape:pagecheckerboard="0"
     inkscape:deskcolor="#505050"
     showgrid="false"
     inkscape:zoom="1.9524963"
     inkscape:cx="-74.263904"
     inkscape:cy="30.473809"
     inkscape:window-width="1916"
     inkscape:window-height="1011"
     inkscape:window-x="0"
     inkscape:window-y="44"
     inkscape:window-maximized="1"
     inkscape:current-layer="svg527" />
  <path
     d="M 168.75418,30.251232 C 151.242,5.0272597 116.37829,-2.3632041 91.31498,13.703022 L 47.132862,41.818915 C 35.083194,49.37004 26.728757,61.741033 24.318823,75.718648 c -2.088609,11.728344 -0.321324,23.778013 5.301855,34.221062 -3.855894,5.78384 -6.426491,12.21033 -7.551127,18.95815 -2.570595,14.29893 0.803312,29.07986 9.157749,40.8082 17.672847,25.22398 52.375892,32.61444 77.43921,16.70888 l 44.18212,-28.11589 c 12.04966,-7.55113 20.4041,-19.92213 22.81403,-33.89973 2.08861,-11.72835 0.32133,-23.77802 -5.30185,-34.22107 3.85589,-5.783839 6.42649,-12.21033 7.55113,-18.958144 2.57059,-14.459602 -0.64266,-29.240529 -9.15776,-40.968874 M 86.977099,172.11599 c -14.298941,3.69524 -29.240528,-1.92793 -37.594965,-13.97761 -5.141193,-7.06914 -7.069139,-15.90556 -5.62318,-24.58132 0.321325,-1.44596 0.64265,-2.73126 0.963974,-4.17721 l 0.803312,-2.57061 2.249271,1.60663 c 5.301854,3.85589 11.085695,6.74781 17.351522,8.67576 l 1.606622,0.48198 -0.160661,1.60662 c -0.160662,2.24928 0.481987,4.6592 1.767284,6.58716 2.570597,3.69523 7.06914,5.46251 11.407021,4.33787 0.963972,-0.32132 1.927946,-0.64264 2.731258,-1.12463 l 44.021453,-28.11589 c 2.24927,-1.44597 3.69523,-3.53457 4.17722,-6.10516 0.48199,-2.57059 -0.16066,-5.30187 -1.60662,-7.39047 -2.5706,-3.69523 -7.06913,-5.30186 -11.40702,-4.17722 -0.96398,0.32133 -1.92794,0.64265 -2.73126,1.12464 l -16.708874,10.60371 c -2.731258,1.76728 -5.78384,3.05258 -8.997086,3.85589 -14.298939,3.69524 -29.240528,-1.92795 -37.594965,-13.97761 -4.980529,-7.069144 -7.069139,-15.905568 -5.462516,-24.581329 1.44596,-8.354437 6.587152,-15.905562 13.816953,-20.404105 L 104.00729,31.697193 c 2.73126,-1.767285 5.78385,-3.052583 8.99709,-4.016556 14.29894,-3.695232 29.24053,1.927946 37.59498,13.977616 5.14119,7.069138 7.06913,15.905562 5.62317,24.581324 -0.32133,1.445959 -0.64264,2.731258 -1.12464,4.177218 l -0.8033,2.570595 -2.24927,-1.606623 c -5.30187,-3.855893 -11.0857,-6.747813 -17.35153,-8.675761 l -1.60662,-0.481986 0.16066,-1.606623 c 0.16066,-2.249271 -0.482,-4.659206 -1.76729,-6.587151 -2.57059,-3.695232 -7.06915,-5.301855 -11.40702,-4.177219 -0.96397,0.321325 -1.92795,0.642649 -2.73126,1.124635 L 73.320808,79.253218 c -2.249272,1.44596 -3.695231,3.53457 -4.177218,6.105165 -0.481987,2.570596 0.160662,5.301854 1.606622,7.390463 2.570596,3.695232 7.069139,5.301855 11.407019,4.177219 0.963974,-0.321325 1.927948,-0.642649 2.731258,-1.124636 l 16.869541,-10.76437 c 2.73125,-1.767284 5.78383,-3.052583 8.99708,-4.016556 14.29894,-3.695233 29.24053,1.927946 37.59497,13.977614 5.14119,7.069133 7.06914,15.905563 5.62317,24.581333 -1.44595,8.35443 -6.58715,15.90556 -13.81695,20.4041 l -44.021453,28.11589 c -2.89192,1.76728 -5.944503,3.05258 -9.157748,4.01655"
     id="path525"
     style="stroke-width:1.60662" />
</svg>
